<?xml version="1.0" standalone="no"?>
<!DOCTYPE svg PUBLIC "-//W3C//DTD SVG 1.1//EN" "http://www.w3.org/Graphics/SVG/1.1/DTD/svg11.dtd" >
<svg xmlns="http://www.w3.org/2000/svg">
<metadata>
<json>
<![CDATA[
{
	"fontFamily": "icomoon",
	"description": "Font generated by IcoMoon.",
	"version": "Version 1.0",
	"majorVersion": 0,
	"fontId": "icomoon",
	"psName": "icomoon",
	"subFamily": "Regular",
	"fullName": "icomoon"
}
]]>
</json>
</metadata>
<defs>
<font id="icomoon" horiz-adv-x="1024">
<font-face units-per-em="1024" ascent="960" descent="-64" />
<missing-glyph horiz-adv-x="1024" />
<glyph unicode="&#x20;" horiz-adv-x="512" d="" />
<glyph unicode="&#xe009;" glyph-name="et-icon-btn-opt" data-tags="et-icon-btn-opt" horiz-adv-x="887" d="M750.992 395.73v-169.614q0-63.472-45.071-108.542t-108.542-45.071h-443.769q-63.472 0-108.542 45.071t-45.071 108.542v443.769q0 63.472 45.071 108.542t108.542 45.071h443.769q33.603 0 62.405-13.335 8-3.733 9.6-12.268 1.6-9.068-4.801-15.468l-26.135-26.135q-5.333-5.333-12.268-5.333-1.6 0-4.801 1.067-12.268 3.201-24.001 3.201h-443.769q-35.203 0-60.271-25.068t-25.068-60.271v-443.769q0-35.203 25.068-60.271t60.271-25.068h443.769q35.203 0 60.271 25.068t25.068 60.271v135.478q0 6.934 4.801 11.735l34.136 34.136q5.333 5.333 12.268 5.333 3.201 0 6.4-1.6 10.667-4.266 10.667-15.468zM874.203 656.551l-434.169-434.169q-12.801-12.801-30.402-12.801t-30.402 12.801l-229.352 229.352q-12.801 12.801-12.801 30.402t12.801 30.402l58.671 58.671q12.801 12.801 30.402 12.801t30.402-12.801l140.279-140.279 345.094 345.094q12.801 12.801 30.402 12.801t30.402-12.801l58.671-58.671q12.801-12.801 12.801-30.402t-12.801-30.402z" />
<glyph unicode="&#xe016;" glyph-name="et-icon-social-f" data-tags="et-icon-social-f" horiz-adv-x="439" d="M292 642.286h146.857l-17.143-162.286h-129.714v-470.857h-194.857v470.857h-97.143v162.286h97.143v97.714q0 104 49.143 157.429t161.714 53.429h129.714v-162.286h-81.143q-22.286 0-35.714-3.714t-19.429-13.429-7.714-19.714-1.714-28.286v-81.143z" />
<glyph unicode="&#xe017;" glyph-name="et-icon-social-g" data-tags="et-icon-social-g" horiz-adv-x="951" d="M500.571 122.857q0 12-2.571 23.143t-5.429 20.571-10 19.714-12 17.429-15.143 16.857-15.714 14.571-18.286 14.571-17.714 13.143-18.857 13.143-17.429 12q-9.714 1.143-28.571 1.143-30.857 0-60.571-4t-61.714-14.286-56-26.286-39.429-42.857-15.429-61.143q0-38.857 20.286-69.429t53.143-48 68.857-26 72.571-8.571q33.714 0 64.286 7.143t57.429 22.286 42.571 42 15.714 62.857zM432 615.429q0 34.286-9.429 72.857t-26.857 74.571-48 59.429-68.286 23.429q-53.143 0-82.286-39.429t-29.143-94.286q0-26.857 6.571-56.571t20.286-59.429 32-53.429 44.571-38.571 55.429-14.857q55.429 0 80.286 34.571t24.857 91.714zM357.143 886.857h249.714l-77.143-45.143h-77.143q40.571-25.714 62.857-72t22.286-96.571q0-42.286-13.143-75.143t-32-52.857-37.714-36.857-32-34.857-13.143-38.571q0-14.857 9.429-29.143t24.571-27.429 33.429-27.429 36.571-31.714 33.429-37.714 24.571-48.571 9.429-60.857q0-91.429-80-161.143-86.857-74.857-240-74.857-33.714 0-68.286 5.714t-69.714 19.143-62 33.143-44 50.857-17.143 69.429q0 34.857 21.143 77.143 18.286 36.571 54.857 63.143t82.857 40.571 88.571 20.571 85.714 7.714q-36.571 47.429-36.571 85.143 0 6.857 1.143 13.429t2.857 11.143 4.571 12.286 4 12.286q-22.857-2.857-40-2.857-85.143 0-146 56t-60.857 140.571q0 80 54.286 143.143t133.714 80.857q53.714 11.429 106.857 11.429zM950.857 740.571v-73.143h-146.286v-146.286h-73.143v146.286h-146.286v73.143h146.286v146.286h73.143v-146.286h146.286z" />
<glyph unicode="&#xe018;" glyph-name="et-icon-social-t" data-tags="et-icon-social-t" horiz-adv-x="951" d="M925.714 726.857q-38.286-56-92.571-95.429 0.571-8 0.571-24 0-74.286-21.714-148.286t-66-142-105.429-120.286-147.429-83.429-184.571-31.143q-154.857 0-283.429 82.857 20-2.286 44.571-2.286 128.571 0 229.143 78.857-60 1.143-107.429 36.857t-65.143 91.143q18.857-2.857 34.857-2.857 24.571 0 48.571 6.286-64 13.143-106 63.714t-42 117.429v2.286q38.857-21.714 83.429-23.429-37.714 25.143-60 65.714t-22.286 88q0 50.286 25.143 93.143 69.143-85.143 168.286-136.286t212.286-56.857q-4.571 21.714-4.571 42.286 0 76.571 54 130.571t130.571 54q80 0 134.857-58.286 62.286 12 117.143 44.571-21.143-65.714-81.143-101.714 53.143 5.714 106.286 28.571z" />
<glyph unicode="&#xe020;" glyph-name="et-icon-social-l" data-tags="et-icon-social-l" horiz-adv-x="878" d="M199.429 602.857v-566.286h-188.571v566.286h188.571zM211.429 777.714q0.571-41.714-28.857-69.714t-77.429-28h-1.143q-46.857 0-75.429 28t-28.571 69.714q0 42.286 29.429 70t76.857 27.714 76-27.714 29.143-70zM877.714 361.143v-324.571h-188v302.857q0 60-23.143 94t-72.286 34q-36 0-60.286-19.714t-36.286-48.857q-6.286-17.143-6.286-46.286v-316h-188q1.143 228 1.143 369.714t-0.571 169.143l-0.571 27.429h188v-82.286h-1.143q11.429 18.286 23.429 32t32.286 29.714 49.714 24.857 65.429 8.857q97.714 0 157.143-64.857t59.429-190z" />
<glyph unicode="&#xe021;" glyph-name="et-icon-social-y" data-tags="et-icon-social-y" horiz-adv-x="878" d="M554.857 249.143v-120.571q0-38.286-22.286-38.286-13.143 0-25.714 12.571v172q12.571 12.571 25.714 12.571 22.286 0 22.286-38.286zM748 248.571v-26.286h-51.429v26.286q0 38.857 25.714 38.857t25.714-38.857zM196 373.143h61.143v53.714h-178.286v-53.714h60v-325.143h57.143v325.143zM360.571 48h50.857v282.286h-50.857v-216q-17.143-24-32.571-24-10.286 0-12 12-0.571 1.714-0.571 20v208h-50.857v-223.429q0-28 4.571-41.714 6.857-21.143 33.143-21.143 27.429 0 58.286 34.857v-30.857zM605.714 132.571v112.571q0 41.714-5.143 56.571-9.714 32-40.571 32-28.571 0-53.143-30.857v124h-50.857v-378.857h50.857v27.429q25.714-31.429 53.143-31.429 30.857 0 40.571 31.429 5.143 15.429 5.143 57.143zM798.857 138.286v7.429h-52q0-29.143-1.143-34.857-4-20.571-22.857-20.571-26.286 0-26.286 39.429v49.714h102.286v58.857q0 45.143-15.429 66.286-22.286 29.143-60.571 29.143-38.857 0-61.143-29.143-16-21.143-16-66.286v-98.857q0-45.143 16.571-66.286 22.286-29.143 61.714-29.143 41.143 0 61.714 30.286 10.286 15.429 12 30.857 1.143 5.143 1.143 33.143zM451.429 660v120q0 39.429-24.571 39.429t-24.571-39.429v-120q0-40 24.571-40t24.571 40zM862.286 230.857q0-133.714-14.857-200-8-33.714-33.143-56.571t-58.286-26.286q-105.143-12-317.143-12t-317.143 12q-33.143 3.429-58.571 26.286t-32.857 56.571q-14.857 64-14.857 200 0 133.714 14.857 200 8 33.714 33.143 56.571t58.857 26.857q104.571 11.429 316.571 11.429t317.143-11.429q33.143-4 58.571-26.857t32.857-56.571q14.857-64 14.857-200zM292 960h58.286l-69.143-228v-154.857h-57.143v154.857q-8 42.286-34.857 121.143-21.143 58.857-37.143 106.857h60.571l40.571-150.286zM503.429 769.714v-100q0-46.286-16-67.429-21.143-29.143-60.571-29.143-38.286 0-60 29.143-16 21.714-16 67.429v100q0 45.714 16 66.857 21.714 29.143 60 29.143 39.429 0 60.571-29.143 16-21.143 16-66.857zM694.857 862.286v-285.143h-52v31.429q-30.286-35.429-58.857-35.429-26.286 0-33.714 21.143-4.571 13.714-4.571 42.857v225.143h52v-209.714q0-18.857 0.571-20 1.714-12.571 12-12.571 15.429 0 32.571 24.571v217.714h52z" />
<glyph unicode="&#xe035;" glyph-name="et-icon-social-p" data-tags="et-icon-social-p" horiz-adv-x="791" d="M451.008 955.641c127.282-9.984 228.018-64.949 295.234-175.465 39.291-64.594 48.078-135.792 40.871-209.657-10.087-103.483-41.639-198.071-118.944-271.842-62.048-59.218-137.003-84.791-222.203-75.065-46.249 5.28-84.965 27.698-115.47 67.895-10.123-39.065-21.109-74.921-28.546-111.495-17.609-86.569-58.928-161.218-111.927-230.334-3.209-4.183-8.933-6.439-13.488-9.589-2.711 5.349-6.992 10.448-7.897 16.089-14.951 93.097-6.873 184.395 17.65 275.381 21.733 80.638 39.269 162.416 57.945 243.858 1.726 7.525-0.574 16.597-2.958 24.347-18.811 61.138-20.249 121.019 13.575 177.808 17.954 30.144 44.651 50.517 80.167 52.718 52.306 3.237 89.794-31.387 83.749-92.889-4.103-41.749-17.639-82.633-27.781-123.701-5.941-24.050-13.454-47.717-20.338-71.531-10.519-36.37-4.446-69.001 24.078-94.921 31.301-28.453 68.809-30.288 106.633-17.902 40.238 13.163 68.624 42.357 89.221 78.299 47.387 82.688 64.56 172.635 51.781 266.208-12.594 92.215-69.029 150.453-158.574 173.323-91.751 23.431-179.031 10.663-257.369-44.923-89.845-63.755-135.49-197.73-99.968-291.998 5.886-15.618 14.523-30.88 24.859-43.966 10.887-13.787 14.37-26.837 8.974-43.353-3.84-11.755-5.744-24.128-9.029-36.080-5.328-19.394-14.971-24.663-33.195-16.91-60.537 25.774-91.086 75.744-106.617 136.423-6.121 23.847-8.302 48.706-12.272 73.111 0 7.847 0 15.694 0 23.541 5.257 27.415 7.442 55.872 16.279 82.087 53.593 159.017 169.289 242.251 331.447 267.134 20.011 3.074 40.167 5.195 60.254 7.758z" />
<glyph unicode="&#xe038;" glyph-name="et-icon-social-i" data-tags="et-icon-social-i" d="M854 960h-684c-93.499 0-170-76.501-170-170v-684c0-93.499 76.501-170 170-170h684c93.499 0 170 76.501 170 170v684c0 93.499-76.501 170-170 170zM327.799 512h368.4c6.987-20.057 10.8-41.591 10.8-64 0-107.525-87.477-195.001-195.001-195.001s-195.001 87.477-195.001 195.001c0.005 22.409 3.815 43.943 10.802 64zM896 511.95v-383.95c0-35.2-28.8-64-64-64h-640c-35.2 0-64 28.8-64 64v384h100.107c-4.642-20.601-7.109-42.016-7.109-64 0-160.457 130.542-291.001 291.001-291.001 160.457 0 291.001 130.542 291.001 291.001 0 21.984-2.464 43.399-7.109 64l100.107-0.050zM896 736c0-17.6-14.4-32-32-32h-64c-17.6 0-32 14.4-32 32v64c0 17.6 14.4 32 32 32h64c17.6 0 32-14.4 32-32v-64z" />
<glyph unicode="&#xe900;" glyph-name="et-icon-mobile-sold-by" data-tags="et-icon-mobile-sold-by" d="M921.598 475.648v-437.246c0-56.553-45.846-102.399-102.399-102.399v0h-153.599c-56.553 0-102.399 45.846-102.399 102.399v0 204.799h-102.399v-204.799c0-56.553-45.846-102.399-102.399-102.399v0h-153.599c-56.553 0-102.399 45.846-102.399 102.399v0 437.246c-61.589 36.035-102.32 101.828-102.399 177.14v51.211c-0.004 0.212-0.005 0.462-0.005 0.713 0 8.123 1.891 15.805 5.258 22.627l-0.133-0.3 102.399 204.799c8.618 16.837 25.849 28.161 45.723 28.161 0.125 0 0.251 0 0.376-0.001h716.777c0.106 0.001 0.232 0.001 0.356 0.001 19.874 0 37.105-11.324 45.589-27.872l0.134-0.288 102.399-204.799c3.072-7.168 5.12-15.36 5.12-23.040v-51.2c-0.079-75.324-40.812-141.117-101.433-176.628l-0.966-0.523zM819.199 448c-61.44 0-116.223 26.624-153.599 69.12-37.633-42.762-92.481-69.601-153.599-69.601s-115.966 26.839-153.404 69.374l-0.196 0.227c-37.614-42.479-92.284-69.12-153.177-69.12-0.149 0-0.298 0-0.445 0h0.023v-409.598h153.599v204.799c0 56.319 46.080 102.399 102.399 102.399h102.399c56.553 0 102.399-45.846 102.399-102.399v0-204.799h153.599v409.598zM921.598 652.799h-204.799c0-56.553 45.846-102.399 102.399-102.399s102.399 45.846 102.399 102.399v0zM614.399 652.799h-204.799c0-56.553 45.846-102.399 102.399-102.399s102.399 45.846 102.399 102.399v0zM307.201 652.799h-204.799c0-56.553 45.846-102.399 102.399-102.399s102.399 45.846 102.399 102.399v0zM889.854 755.199l-51.2 102.399h-653.31l-51.2-102.399h755.709z" />
<glyph unicode="&#xe901;" glyph-name="et-icon-btn-cart3" data-tags="et-icon-btn-cart3" d="M68.921 857.999h111.692c1.055 0 1.952-0.493 2.978-0.601 2.142-0.219 4.144-0.575 6.151-1.243 1.68-0.555 3.197-1.24 4.728-2.072 1.762-0.959 3.351-2 4.887-3.296 1.413-1.188 2.613-2.452 3.781-3.877 1.204-1.469 2.233-2.964 3.147-4.666 0.945-1.748 1.608-3.541 2.188-5.478 0.315-1.050 0.995-1.894 1.197-2.998l16.916-92.45 722.853-42.243c2.769 0.192 5.212-0.212 8.308-0.5 16.058-1.462 27.981-15.538 26.788-31.615-0.096-1.212-0.25-2.385-0.481-3.538l-50.365-274.692c-11.519-42.596-47-85.596-100.365-85.596h-526.555l11.274-61.615h443.070c56.096 0 101.75-45.654 101.75-101.75 0-56.115-45.654-101.769-101.75-101.769s-101.75 45.654-101.75 101.769c0 15.286 3.632 29.651 9.7 42.673h-272.072c6.067-13.022 9.7-27.387 9.7-42.673 0-56.115-45.654-101.769-101.75-101.769s-101.75 45.654-101.75 101.769c0 39.887 23.293 74.142 56.798 90.812l-103.998 568.341h-87.070c-16.308 0-29.538 13.231-29.538 29.538s13.231 29.538 29.538 29.538zM274.82 477.742l125.173-1.966-6.817 72.543-131.995 3.957 13.639-74.534zM900.161 533.119l-125.084 3.75-8.183-66.853 121.365-1.906 11.901 65.010zM735.563 538.054l-137.488 4.12v-69.507l129.233-2.031 8.255 67.418zM598.075 581.595l142.296-4.267 9.091 74.255-151.387 8.851v-78.839zM558.69 662.737l-137.462 8.038 7.904-84.115 129.558-3.885v79.962zM598.075 433.273v-71.063h115.959l8.462 69.108-124.421 1.954zM558.69 433.891l-115.373 1.81 6.906-73.49h108.466v71.68zM558.69 473.285v70.070l-125.844 3.774 6.764-71.974 119.079-1.87zM253.928 591.912l135.534-4.062-8.010 85.25-143.921 8.416 16.397-89.603zM788.842 649.28l-8.954-73.135 127.454-3.822c5.37 29.178 9.647 51.853 13.291 69.252l-131.791 7.704zM876.113 401.749l4.957 27.079-118.99 1.868-8.385-68.486h79.63c25.308 0 39.404 27.423 42.788 39.538zM410.664 362.211l-6.964 74.113-121.651 1.911 13.911-76.024h114.704zM718.44 139.768c0-23.538 19.135-42.692 42.673-42.692s42.673 19.154 42.673 42.692-19.135 42.673-42.673 42.673-42.673-19.135-42.673-42.673zM304.94 97.076c23.538 0 42.673 19.154 42.673 42.692s-19.135 42.673-42.673 42.673-42.673-19.135-42.673-42.673 19.135-42.692 42.673-42.692z" />
<glyph unicode="&#xe902;" glyph-name="et-icon-horizontal-filter" data-tags="et-icon-horizontal-filter" d="M846.72 789.333l-281.984-333.397c-6.272-7.381-10.069-17.024-10.069-27.563v-295.339l-85.333 42.667v252.672c0.043 9.685-3.285 19.499-10.069 27.563l-281.984 333.397zM938.667 874.667h-853.333c-23.552 0-42.667-19.115-42.667-42.667 0-10.539 3.797-20.181 10.069-27.563l331.264-391.68v-263.424c0-16.597 9.472-31.019 23.595-38.144l170.667-85.333c21.077-10.539 46.72-2.005 57.259 19.072 3.072 6.229 4.523 12.843 4.48 19.072v348.757l331.264 391.68c15.232 18.005 12.971 44.928-5.035 60.117-8.064 6.827-17.877 10.155-27.563 10.112z" />
<glyph unicode="&#xe903;" glyph-name="et-icon-bc-right" data-tags="et-icon-bc-right" d="M512 960c-282.784 0-512-229.216-512-512s229.216-512 512-512 512 229.216 512 512-229.216 512-512 512zM512 32c-229.76 0-416 186.24-416 416s186.24 416 416 416 416-186.24 416-416-186.24-416-416-416zM354.752 253.248l90.528-90.528 285.248 285.248-285.248 285.248-90.496-90.496 194.752-194.752z" />
<glyph unicode="&#xe904;" glyph-name="et-icon-pag-left" data-tags="et-icon-pag-left" horiz-adv-x="640" d="M27.832 521.755l410.101 410.058c37.605 37.562 99.124 37.562 136.686 0l34.268-34.225c37.562-37.519 37.562-99.081 0-136.643l-312.944-312.944 312.944-312.944c37.562-37.562 37.562-99.124 0-136.643l-34.268-34.225c-37.562-37.605-99.081-37.605-136.686 0l-410.101 410.143c-20.193 20.107-29.134 47.145-27.679 73.669-1.455 26.524 7.487 53.562 27.679 73.755z" />
<glyph unicode="&#xe905;" glyph-name="et-icon-pag-right" data-tags="et-icon-pag-right" horiz-adv-x="640" d="M609.199 521.752l-410.083 410.083c-37.56 37.56-99.12 37.56-136.68 0l-34.224-34.224c-37.56-37.518-37.56-99.077 0-136.637l312.889-312.974-312.931-312.931c-37.56-37.56-37.56-99.12 0-136.637l34.224-34.224c37.56-37.603 99.12-37.603 136.68 0l410.083 410.126c20.192 20.149 29.176 47.186 27.678 73.709 1.54 26.48-7.444 53.517-27.635 73.709z" />
<glyph unicode="&#xe906;" glyph-name="et-icon-bc-left" data-tags="et-icon-bc-left" d="M512-64c282.784 0 512 229.216 512 512s-229.216 512-512 512-512-229.216-512-512 229.216-512 512-512zM512 864c229.76 0 416-186.24 416-416s-186.24-416-416-416-416 186.24-416 416 186.24 416 416 416zM669.248 642.752l-90.528 90.528-285.248-285.248 285.248-285.248 90.496 90.496-194.752 194.752z" />
<glyph unicode="&#xe907;" glyph-name="et-icon-pp-return" data-tags="et-icon-pp-return" d="M578.789 829.277c-242.154 0-439.002-193.972-444.939-435.483h-133.85l200.366-223.319 200.345 223.319h-155.539c5.872 179.832 152.935 323.824 333.617 323.824 184.429 0 333.911-149.972 333.911-334.979s-149.482-334.979-333.911-334.979c-73.957 0-142.26 24.162-197.578 64.991l-76.571-81.931c75.591-59.327 170.747-94.72 274.149-94.72 245.891 0 445.211 199.952 445.211 446.638s-199.321 446.638-445.211 446.638zM539.212 622.299v-255.455l163.698-163.666 53.913 53.913-141.334 141.345v223.864h-76.277z" />
<glyph unicode="&#xe908;" glyph-name="et-icon-pp-warranty" data-tags="et-icon-pp-warranty" d="M727.693-64l-194.986 292.766 65.284 43.714 113.598-170.541 36.525 87.427h94.617l-104.683 156.737 65.57 43.714 186.072-279.251h-189.234zM296.307-64l-72.76 174.568h-189.234l186.072 279.251 65.57-43.714-104.683-156.737h94.617l36.525-87.427 113.598 170.541 65.284-43.714zM512 172.686c-25.021 0-50.328 7.766-71.61 23.295l-62.982 45.439-76.787 12.366c-52.054 8.34-92.891 49.178-101.232 101.232l-12.366 76.787-45.439 62.982c-30.773 42.851-30.773 100.369 0 143.219l45.439 62.982 12.366 76.787c8.34 52.054 49.178 92.891 101.232 101.232l76.787 12.366 62.982 45.439c42.851 31.059 100.369 30.773 143.219 0l62.982-45.439 76.787-12.366c52.054-8.34 92.891-49.178 101.232-101.232l12.366-76.787 45.439-62.982c30.773-42.851 30.773-100.369 0-143.219l-45.439-62.982-12.366-76.787c-8.34-52.054-49.178-92.891-101.232-101.232l-76.787-12.366-62.982-45.439c-21.281-15.53-46.59-23.295-71.61-23.295zM512 881.31c-8.916 0-17.831-2.876-25.595-8.34l-77.937-56.080-95.193-15.53c-18.693-2.876-33.073-17.543-36.237-36.237l-15.53-95.193-56.368-78.225c-10.928-15.242-10.928-35.949 0-51.191l56.368-78.225 15.53-95.193c2.876-18.693 17.543-33.073 36.237-36.237l95.193-15.53 78.225-56.368c15.242-10.928 35.661-10.928 51.191 0l78.225 56.368 95.193 15.53c18.693 2.876 33.073 17.543 36.237 36.237l15.53 95.193 56.368 78.225c10.928 15.242 10.928 35.949 0 51.191l-57.23 78.512-15.53 95.193c-2.876 18.693-17.543 33.073-36.237 36.237l-95.193 15.53-78.225 56.368c-7.19 5.176-16.105 7.766-25.021 7.766z" />
<glyph unicode="&#xe909;" glyph-name="et-icon-pp-delivery" data-tags="et-icon-pp-delivery" d="M1025.169 31.854h-127.884v64.058h63.824v186.798l-54.941 165.29h-233.089v-352.088h32.030v-64.058h-95.854v480.204h342.97l72.943-218.828zM801.199-64c-70.605 0-128.116 57.513-128.116 128.116s57.513 128.116 128.116 128.116c70.605 0 128.116-57.513 128.116-128.116s-57.513-128.116-128.116-128.116zM801.199 127.942c-35.303 0-64.058-28.756-64.058-64.058s28.756-64.058 64.058-64.058c35.303 0 64.058 28.756 64.058 64.058s-28.756 64.058-64.058 64.058zM673.081 31.854h-319.824v64.058h256v479.97h-544.030v-479.97h95.854v-64.058h-159.912v608.088h671.912zM257.169-64c-70.605 0-128.116 57.513-128.116 128.116s57.513 127.884 128.116 127.884 128.116-57.513 128.116-128.116-57.513-127.884-128.116-127.884zM257.169 127.942c-35.303 0-64.058-28.756-64.058-64.058s28.756-64.058 64.058-64.058 64.058 28.756 64.058 64.058c0 35.303-28.756 64.058-64.058 64.058zM321.227 242.733l-150.795 150.561 45.355 45.355 105.44-105.44 169.264 169.264 45.355-45.121z" />
<glyph unicode="&#xe90a;" glyph-name="et-icon-pp-payment" data-tags="et-icon-pp-payment" d="M957.245 499.058h-96.178l-27.552 156.111c-6.334 36.257-41.299 60.469-77.305 54.217l-701.082-123.646c-36.215-6.377-60.511-41.090-54.093-77.347l74.763-423.908c3.084-17.544 12.794-32.881 27.38-43.133 11.377-7.96 24.587-12.127 38.174-12.127 3.917 0 7.835 0.334 11.752 1.042l25.546 4.511v-32.058c0-36.799 29.922-66.72 66.72-66.72h711.876c36.799 0 66.761 29.922 66.761 66.72v429.617c0 36.799-29.964 66.72-66.761 66.72zM770.504 644.083l12.234-69.346-429.287-75.68h-108.082c-22.663 0-42.653-11.401-54.718-28.719l-114.382-20.16-0.138 0.787-9.876 71.763 704.25 121.355zM138.809 95.569l-43.042 244.053 82.882 14.617v-253.35l-39.84-5.321zM959.996 2.72c0-1.501-1.25-2.709-2.75-2.709l-714.584 2.709v360.147l2.709 72.179 714.626-2.709v-429.617zM342.72 157.538h52.718c31.714 0 57.51 25.797 57.51 57.51v52.718c0 31.673-25.797 57.468-57.51 57.468h-52.718c-31.673 0-57.468-25.797-57.468-57.468v-52.718c0-31.714 25.797-57.51 57.468-57.51zM327.925 267.766c0 8.168 6.626 14.794 14.794 14.794h52.718c8.168 0 14.836-6.626 14.836-14.794v-52.718c0-8.168-6.668-14.836-14.836-14.836h-52.718c-8.168 0-14.794 6.668-14.794 14.836v52.718zM758.96 131.201c-8.334-8.334-8.334-21.837 0-30.172 4.167-4.167 9.627-6.251 15.086-6.251s10.919 2.084 15.086 6.251c64.262 64.219 64.262 168.78 0 232.999-8.334 8.334-21.837 8.334-30.172 0s-8.334-21.837 0-30.172c47.592-47.592 47.592-125.064 0-172.655zM708.243 156.538c-8.334-8.334-8.334-21.837 0-30.172 4.167-4.167 9.627-6.251 15.086-6.251s10.919 2.084 15.086 6.251c50.259 50.259 50.259 132.065 0 182.324-8.334 8.334-21.837 8.334-30.172 0s-8.334-21.837 0-30.172c33.63-33.63 33.63-88.348 0-121.98zM657.526 151.705c4.167-4.167 9.627-6.251 15.086-6.251s10.919 2.084 15.086 6.251c36.257 36.298 36.257 95.35 0 131.607-8.334 8.334-21.837 8.334-30.172 0s-8.334-21.837 0-30.172c19.628-19.628 19.628-51.592 0-71.262-8.334-8.334-8.334-21.879 0-30.172zM855.936 217.508c0-42.133-16.42-81.806-46.3-111.686-8.334-8.334-8.334-21.837 0-30.172 4.167-4.167 9.627-6.251 15.086-6.251s10.919 2.084 15.086 6.251c37.923 37.923 58.802 88.307 58.802 141.858 0 53.593-20.878 103.935-58.802 141.858-8.334 8.334-21.837 8.334-30.172 0s-8.334-21.837 0-30.172c29.88-29.838 46.3-69.512 46.3-111.686zM306.589 39.935h94.308c11.794 0 21.337 9.544 21.337 21.337s-9.544 21.337-21.337 21.337h-94.308c-11.794 0-21.337-9.544-21.337-21.337s9.544-21.337 21.337-21.337zM468.7 39.935h126.314c11.794 0 21.337 9.544 21.337 21.337s-9.544 21.337-21.337 21.337h-126.314c-11.794 0-21.337-9.544-21.337-21.337s9.544-21.337 21.337-21.337z" />
<glyph unicode="&#xe90b;" glyph-name="et-icon-pp-phone" data-tags="et-icon-pp-phone" horiz-adv-x="912" d="M667.195 322.135l198.516-198.569 23.228 23.44c30.291 30.291 30.291 83.204 0 113.495l-84.864 84.864c-15.191 15.191-35.369 23.545-56.773 23.545s-41.582-8.351-56.722-23.44l-23.388-23.336zM353.845 682.147c30.291 30.291 30.291 83.204 0 113.495l-84.864 84.864c-15.191 15.138-35.369 23.493-56.773 23.493s-41.582-8.351-56.827-23.598l-23.114-23.388 198.15-198.15 23.44 23.283zM793.153 51.218l18.948 18.948-198.412 198.412-34.733-34.784c-5.086-5.086-11.771-7.813-18.948-7.813s-13.862 2.78-18.948 7.813l-298.903 298.903c-10.061 10.118-10.118 27.722 0 37.826l34.784 34.784-198.516 198.098-18.948-18.948c-13.914-13.914-59.135-66.668-59.135-163.522 0-86.472 38.105-227.742 219.651-409.344 362.529-362.423 564.523-168.977 573.142-160.37z" />
<glyph unicode="&#xe90c;" glyph-name="et-icon-header-phone" data-tags="et-icon-header-phone" horiz-adv-x="448" d="M256.002 953.38c55.488 8 131.393 13.216 160.449-11.664 48.048-41.136 48.048-301.714-48.048-301.714-48.4 0-80.129 42.848-128.177 1.712-47.264-40.464-48.032-113.025-48.048-193.714 0.016-80.689 0.784-153.249 48.048-193.714 48.048-41.136 79.777 1.712 128.177 1.712 96.081 0 96.081-260.578 48.048-301.714-29.056-24.88-104.961-19.664-160.449-11.664-37.040 6.16-76.993 21.728-128.001 71.553 0 0 0 0 0 0-69.745 74.737-126.737 187.841-127.969 429.827h-0.032c0 1.344 0.016 2.656 0.016 4s-0.016 2.656-0.016 4h0.032c1.232 241.986 58.224 355.091 127.969 429.827 0 0 0 0 0 0 50.992 49.824 90.961 65.393 128.001 71.553z" />
<glyph unicode="&#xe90d;" glyph-name="et-icon-cta-arrow" data-tags="et-icon-cta-arrow" horiz-adv-x="1434" d="M696.32-64h286.72l450.56 512-450.56 512h-296.96l337.92-389.12h-1024v-235.52h1024l-327.68-399.36z" />
<glyph unicode="&#xe90e;" glyph-name="et-icon-syob-1" data-tags="et-icon-syob-1" d="M384.032 384c70.688 0 128 57.312 128 128s-57.312 128-128 128-128-57.312-128-128 57.312-128 128-128zM768.032 510.112v271.2l-178.752 178.688h-589.248v-1024h768v1.92c143.968 15.936 255.968 137.824 255.968 286.080s-112 270.176-255.968 286.112zM575.968 882.784l114.816-114.784h-114.816v114.784zM64.032 0v896.064h448v-192.032h192v-193.92c-111.264-12.32-203.136-88-239.264-190.112-113.984 0-272.736 0-272.736 0s-64 0-64-64c0-32 0-192 0-192h368.576c16.192-24.192 36-45.76 58.624-64h-491.2zM736.032 0.032c-123.68 0.256-223.808 100.32-224 223.968 0.192 123.68 100.32 223.808 224 224 123.648-0.192 223.712-100.32 223.968-224-0.256-123.648-100.32-223.712-223.968-223.968zM704 96h-96v96zM896.012 288.017l-159.997-159.997-96.007 96.007 159.997 159.997 96.007-96.007z" />
<glyph unicode="&#xe90f;" glyph-name="et-icon-syob-2" data-tags="et-icon-syob-2" horiz-adv-x="745" d="M744.727 198.787v556.413l-203.107 204.8h-519.052c0 0-22.567 0-22.567-22.756v-978.461c0-22.783 22.567-22.783 22.567-22.783h459.372c-15.080 13.31-27.988 29.026-38.123 46.545h-397.271v930.909h465.455v-139.636c0-46.545 46.545-46.545 46.545-46.545h139.636v-490.362c17.52-10.135 33.235-23.042 46.545-38.123v0zM481.94 215.273h-342.303v46.545h465.455c-47.218 0-90.33-17.577-123.151-46.545v0zM418.909 75.636h-279.273v46.545h285.138c-3.829-14.877-5.866-30.473-5.866-46.545v0zM139.636 820.364v-46.545h279.273v46.545h-279.273zM139.636 680.727v-46.545h465.455v46.545h-465.455zM139.636 541.091v-46.545h465.455v46.545h-465.455zM139.636 401.455v-46.545h465.455v46.545h-465.455zM558.545 122.182v93.091h93.091v-93.091h93.091v-93.091h-93.091v-93.091h-93.091v93.091h-93.091v93.091h93.091z" />
<glyph unicode="&#xe910;" glyph-name="et-icon-syob-3" data-tags="et-icon-syob-3" horiz-adv-x="1502" d="M0 686.933h1501.867v-750.933h-1501.867v750.933zM68.267 823.467v-68.267h1365.333v68.267h-1365.333zM136.533 960v-68.267h1228.8v68.267h-1228.8zM68.267 618.667v-614.4h1365.333v614.4h-1365.333zM759.595 550.4v-45.46c18.246-2.938 33.167-8.968 44.764-18.091s22.653-23.117 33.167-41.981l-45.228-25.281c-13.607 24.74-31.389 37.11-53.346 37.11-13.607 0-24.895-4.020-33.863-12.061s-13.453-18.091-13.453-30.152c0-10.979 3.634-20.101 10.901-27.369 7.113-7.113 21.493-15.54 43.141-25.281 18.71-8.505 34.172-16.506 46.388-24.006s21.416-14.728 27.601-21.686c17.473-18.865 26.209-41.672 26.209-68.422 0-26.287-7.886-49.48-23.658-69.582-15.617-19.947-36.492-33.399-62.624-40.358v-48.012h-40.59v46.62c-30.307 4.948-53.423 15.385-69.35 31.312s-27.678 40.512-35.255 73.757l51.027 10.669c6.958-23.503 15.463-40.28 25.513-50.331 10.515-9.587 24.508-14.38 41.981-14.38 17.009 0 31.235 5.489 42.677 16.468 11.288 10.824 16.932 24.818 16.932 41.981 0 15.308-4.716 27.601-14.148 36.878-4.793 4.484-11.868 9.548-21.223 15.192s-21.3 11.79-35.835 18.439c-29.998 13.453-49.712 25.823-59.145 37.11-14.999 16.854-22.498 37.033-22.498 60.536 0 11.133 1.778 21.493 5.335 31.080s8.698 18.285 15.424 26.093c6.726 7.809 15.037 14.574 24.934 20.295s21.107 10.205 33.631 13.453v45.46h40.59z" />
<glyph unicode="&#xe911;" glyph-name="et-icon-fib-buy-sell" data-tags="et-icon-fib-buy-sell" d="M512 960c-282.768 0-512-229.232-512-512s229.232-512 512-512 512 229.232 512 512-229.232 512-512 512zM512 14.769c-238.894 0-433.231 194.35-433.231 433.231s194.337 433.231 433.231 433.231 433.231-194.35 433.231-433.231-194.337-433.231-433.231-433.231zM708.923 363.966c0 28.081-7.26 52.697-21.543 73.124-14.205 20.519-32.309 35.289-53.852 43.796-22.974 9.085-62.201 19.837-116.592 31.902-34.974 7.719-45.253 14.244-50.386 19.088-7.903 7.614-11.947 17.421-11.947 28.239 0 16.187 7.798 43.467 60.153 43.467 26.873 0 48.693-7.627 64.971-22.699 5.383-5.041 10.082-11.106 14.1-17.71l0.158-0.184 0.827-1.51c1.917-3.295 5.356-5.356 9.229-5.356h83.85c5.921 0 10.713 4.752 10.713 10.673-0.026 1.785-1.536 7.181-3.125 11.435-22.305 58.394-66.232 92.081-133.921 103.28v48.43c0 9.019-7.391 16.384-16.463 16.384h-65.694c-8.953 0-16.305-7.378-16.305-16.384v-50.268c-40.382-8.245-71.102-24.497-91.385-48.417-22.712-27.267-33.871-57.502-33.871-92.475 0-31.376 10.056-58.289 30.641-82.537 20.533-24.156 71.719-44.597 152.379-61.138 23.184-4.647 39.306-10.384 49.31-17.303 11.868-8.113 18.209-20.349 18.209-35.013 0-19.574-11.697-42.719-67.151-42.719-18.826 0-34.869 2.796-48.719 8.862-19.456 8.245-34.278 22.384-43.848 42.168l-0.591 0.998-0.21 0.709c-1.772 3.466-5.409 5.75-9.387 5.75h-92.725c-5.816 0-10.686-4.831-10.686-10.306 0.131-1.589 0.866-4.91 0.84-5.028 22.16-72.31 70.38-113.625 147.18-126.346v-50.819c0-9.032 7.365-16.397 16.305-16.397h65.694c9.072 0 16.463 7.378 16.463 16.397v50.741c43.953 7.129 79.307 23.001 104.999 47.524 28.501 26.952 42.378 59.628 42.378 99.643z" />
<glyph unicode="&#xe912;" glyph-name="et-icon-fib-happy" data-tags="et-icon-fib-happy" d="M512-64c282.77 0 512 229.23 512 512s-229.23 512-512 512-512-229.23-512-512 229.23-512 512-512zM512 864c229.75 0 416-186.25 416-416s-186.25-416-416-416-416 186.25-416 416 186.25 416 416 416zM512 361.24c115.95 0 226.23 30.806 320 84.92-14.574-178.438-153.128-318.16-320-318.16-166.868 0-305.422 139.872-320 318.304 93.77-54.112 204.050-85.064 320-85.064zM256 608c0-53.019 28.654-96 64-96s64 42.981 64 96c0 53.019-28.654 96-64 96s-64-42.981-64-96zM640 608c0-53.019 28.654-96 64-96s64 42.981 64 96c0 53.019-28.654 96-64 96s-64-42.981-64-96z" />
<glyph unicode="&#xe913;" glyph-name="et-icon-fib-premium" data-tags="et-icon-fib-premium" d="M1004.8 601.6l-96 127.936c-3.744 5.024-8.192 9.376-12.8 13.536v152.928c0 35.328-28.672 64-64 64h-640c-35.36 0-64-28.672-64-64v-152.96c-4.608-4.128-9.056-8.448-12.8-13.44l-95.968-127.968c-12.416-16.512-19.232-36.96-19.232-57.632v-32c0-52.928 43.072-96 96-96v0-416c0-35.328 28.672-64 64-64h704c35.328 0 64 28.672 64 64v416c52.928 0 96 43.072 96 96v32c0 20.672-6.816 41.12-19.2 57.6zM832 896v-128h-640v128h640zM326.176 480h-134.048l128 224h70.048l-64-224zM423.488 704h72.512v-224h-136.512l64 224zM528 704h72.512l64-224h-136.512v224zM633.76 704h70.048l128-224h-134.048l-64 224zM64 512v32c0 6.944 2.24 13.664 6.4 19.2l96 128c6.048 8.064 15.52 12.8 25.6 12.8h91.264l-128-224h-59.264c-17.664 0-32 14.304-32 32zM640 0h-240v320h240v-320zM864 0h-192v320c0 17.696-14.368 32-32 32h-240c-17.664 0-32-14.304-32-32v-320h-208v416h704v-416zM960 512c0-17.696-14.304-32-32-32h-59.328l-128 224h91.328c10.048 0 19.552-4.736 25.568-12.8l96-128c4.192-5.536 6.432-12.256 6.432-19.2v-32z" />
<glyph unicode="&#xe914;" glyph-name="et-icon-fib-secure" data-tags="et-icon-fib-secure" d="M800 544v128c0 159.072-128.928 288-288 288s-288-128.928-288-288v-128c-53.024 0-96-42.976-96-96v-224c0-159.072 128.928-288 288-288h192c159.072 0 288 128.928 288 288v224c0 53.056-43.008 96-96 96zM288 672c0 123.712 100.288 224 224 224s224-100.288 224-224v-128h-64v127.936c0 88.384-71.616 160-160 160s-160-71.616-160-160v-127.936h-64v128zM640 672v-128h-256v128c0 70.688 57.312 128 128 128s128-57.312 128-128zM832 352v-128c0-123.488-100.512-224-224-224h-192c-123.488 0-224 100.512-224 224v224c0 17.664 14.336 32 32 32 21.344 0 42.656 0 64 0h448c21.312 0 42.624 0 64 0 17.632 0 32-14.336 32-32v-96zM512 352c-35.328 0-64-28.64-64-64 0-19.424 10.656-56.32 21.344-85.504 8.704-23.744 19.648-42.432 42.656-42.432 25.024 0 33.952 18.496 42.688 42.112 10.816 29.248 21.312 66.336 21.312 85.824 0 35.36-28.672 64-64 64z" />
<glyph unicode="&#xe915;" glyph-name="et-icon-footer-email" data-tags="et-icon-footer-email" d="M564.898 959.282c-324.967 0-535.978-262.057-535.978-563.067 0-281.279 205.97-460.215 447.306-460.215 97.329 0 180.274 16.259 261.048 58.845l11.184 5.902-4.403 11.84-28.683 77.186-14.669-8.224c-55.873-31.328-129.346-48.148-208.778-48.148-102.362 0-190.089 35.395-252.598 99.088s-100.193 156.090-100.193 272.269c0 283.629 189.015 460.008 414.222 460.008 107.554 0 189.595-35.647 245.498-95.602s86.010-145.053 86.010-245.778c0-80.514-19.87-143.552-47.474-185.528-27.57-41.926-62.18-62.086-92.137-61.562-9.229 0.299-15.554 2.645-20.757 6.988-5.219 4.355-9.738 11.293-12.909 22.407-6.339 22.226-5.893 60.274 4.59 113.457v0.074l50.602 269.703-10.172 4.703c-39.493 18.267-95.481 31.343-158.906 31.343-206.404 0-352.94-168.301-352.94-353.072 0-118.913 78.037-194.371 168.648-194.371 79.975 0 144.41 37.595 194.277 106.262 4.042-30.059 15.519-54.257 32.354-71.697 22.88-23.702 54.475-34.565 86.329-34.565 143.242 0 268.709 134.721 268.709 354.402 0 245.343-174.848 427.354-430.183 427.354zM564.898 930.505c241.882 0 401.407-166.676 401.407-398.578 0-208.933-114.654-325.625-239.933-325.625-25.391 0-48.844 8.412-65.609 25.779s-27.788 44.264-25.779 84.83l0.749 15.1h-29.020l-4.177-7.044c-48.245-81.306-108.015-118.665-189.125-118.665-75.063 0-139.872 58.826-139.872 165.594 0 169.618 133.359 324.296 324.164 324.296 54.579 0 101.873-11.172 136.407-25.366l-46.199-246.247 0.037 0.131c-10.927-55.429-12.664-96.65-4.027-126.926 4.318-15.139 11.573-27.768 22.145-36.589s24.057-13.25 38.349-13.695h0.188c42.956-0.825 85.474 26.863 116.828 74.545s52.213 116.112 52.213 201.341c0 106.483-32.071 199.266-93.729 265.394s-152.57 104.764-266.555 104.764c-240.394 0-442.998-192.206-442.998-488.785 0-122.442 40.203-222.904 108.436-292.428s164.093-107.705 273.131-107.705c77.019 0 148.779 15.5 207.729 44.832l12.72-34.265c-72.623-35.89-146.673-50.415-236.149-50.415-227.296 0-418.53 164.049-418.53 431.438 0 287.695 197.612 534.291 507.201 534.291zM580.617 649.224c-134.818 0-241.62-125.986-241.62-271.576 0-33.839 8.394-64.37 26.809-86.966s46.975-36.008 81.926-36.008c47.546 0 90.414 29.563 123.368 69.112s56.711 89.843 65.084 137.062l32.354 174.044-12.364 3.728c-15.269 4.592-41.095 10.604-75.557 10.604zM580.617 620.448c23.907 0 41.182-3.209 54.761-6.501l-27.521-148.022-0.019-0.056c-7.328-41.326-29.297-88.203-58.845-123.667s-65.959-58.752-101.26-58.752c-27.983 0-46.588 9.421-59.614 25.405s-20.346 39.746-20.346 68.793c0 131.545 96.118 242.8 212.844 242.8zM440.105-33.037c-81.788 6.728-157.415 34.909-220.28 82.086-75.302 56.508-128.896 141.874-149.881 238.731-21.23 97.989-12.13 214.491 24.489 313.521 11.813 31.946 37.365 82.369 55.527 109.575 81.986 122.809 202.522 196.759 350.769 215.2 31.658 3.938 96.632 3.933 125.207-0.011 193.416-26.688 319.802-158.74 337.598-352.731 2.728-29.73 1.084-86.97-3.316-115.532-11.977-77.74-41.35-141.485-85.885-186.38-29.298-29.535-63.47-49.374-101.217-58.764-19.968-4.966-56.212-6.331-70.524-2.653-33.277 8.55-54.268 30.177-63.205 65.117-2.434 9.514-3.276 18.624-3.276 35.428v22.621l-29.674-0.175-14.413-22.225c-15.906-24.526-40.133-51.492-59.099-65.778-34.642-26.094-76.441-38.564-123.76-36.921-19.354 0.671-25.395 1.561-36.729 5.405-48.327 16.393-80.395 54.529-93.487 111.174-4.113 17.792-4.971 66.528-1.585 89.912 20.136 139.045 119.097 246.075 253.272 273.922 46.881 9.73 102.293 8.71 152.954-2.815 14.79-3.364 43.156-12.292 47.203-14.856 1.831-1.159-2.504-26.908-22.475-133.506-30.101-160.669-30.378-162.553-29.402-199.896 0.659-25.237 1.302-30.497 5.164-42.241 12.555-38.184 42.115-54.663 82.642-46.071 24.381 5.169 42.995 15.635 65.076 36.593 55.283 52.466 84.672 142.292 81.833 250.113-2.945 111.82-37.864 199.939-104.821 264.523-24.772 23.893-45.335 38.478-76.045 53.939-38.039 19.149-77.222 30.726-125.479 37.072-24.557 3.23-88.103 2.728-112.761-0.89-97.053-14.239-177.948-54.328-245.066-121.448-78.773-78.773-124.315-180.616-137.265-306.958-2.667-26.016-2.275-90.199 0.706-115.305 8.503-71.637 28.961-130.427 63.5-182.472 52.872-79.671 132.335-132.243 229.105-151.572 35.866-7.164 61.048-9.097 103.435-7.937 65.164 1.782 122.947 13.761 173.383 35.943 9.093 4 16.87 6.729 17.28 6.066 1.17-1.894 11.121-29.495 11.121-30.848 0-1.35-30.779-14.623-51.718-22.302-57.577-21.115-149.759-32.339-218.895-26.652zM480.043 258.636c45.696 12.736 91.099 53.988 124.491 113.106 9.392 16.629 21.505 45.625 26.414 63.23 2.591 9.294 35.235 180.112 37.876 198.192 0.433 2.965-12.802 7.174-38.649 12.292-22.558 4.466-65.477 5.291-85.631 1.645-73.78-13.347-138.219-63.829-174.541-136.735-17.676-35.479-27.17-69.604-30.734-110.469-7.079-81.167 26.218-134.268 90.819-144.837 12.614-2.064 35.633-0.416 49.957 3.577zM438.943-42.85c-83.316 6.869-160.355 35.645-224.394 83.816-76.707 57.699-131.304 144.866-152.68 243.764-21.627 100.055-12.357 219.014 24.945 320.132 12.033 32.619 38.063 84.105 56.565 111.885 83.517 125.398 206.303 200.907 357.319 219.737 32.249 4.021 98.437 4.015 127.546-0.011 197.028-27.251 325.774-162.086 343.902-360.168 2.778-30.357 1.104-88.804-3.378-117.968-12.201-79.379-42.123-144.468-87.49-190.31-29.845-30.158-64.656-50.416-103.107-60.002-20.341-5.072-57.261-6.464-71.841-2.709-33.898 8.73-55.283 30.813-64.386 66.49-2.478 9.716-3.337 19.018-3.337 36.175v23.097l-30.228-0.179-14.682-22.694c-16.202-25.044-40.883-52.577-60.204-67.165-35.289-26.644-77.869-39.377-126.070-37.701-19.715 0.686-25.869 1.593-37.415 5.519-49.229 16.738-81.896 55.677-95.233 113.518-4.189 18.167-5.065 67.931-1.615 91.807 20.512 141.976 121.321 251.261 258.001 279.697 47.757 9.935 104.203 8.894 155.81-2.875 15.066-3.435 43.962-12.551 48.085-15.17 1.864-1.185-2.55-27.475-22.895-136.321-30.664-164.056-30.945-165.979-29.951-204.11 0.673-25.769 1.327-31.14 5.261-43.132 12.79-38.988 42.902-55.815 84.185-47.042 24.836 5.278 43.798 15.965 66.292 37.364 56.315 53.573 86.253 145.292 83.361 255.386-3 114.177-38.57 204.153-106.779 270.099-25.233 24.396-46.181 39.289-77.466 55.075-38.748 19.553-78.665 31.373-127.822 37.854-25.016 3.297-89.748 2.785-114.867-0.909-98.866-14.54-181.27-55.475-249.643-124.008-80.244-80.433-126.636-184.424-139.829-313.429-2.717-26.565-2.316-92.101 0.719-117.736 8.662-73.148 29.502-133.177 64.686-186.318 53.86-81.351 134.806-135.030 233.383-154.767 36.535-7.315 62.188-9.288 105.367-8.104 66.381 1.819 125.243 14.051 176.621 36.701 9.264 4.084 17.184 6.872 17.603 6.194 1.192-1.934 11.328-30.117 11.328-31.498 0-1.379-31.353-14.931-52.683-22.772-58.652-21.559-152.556-33.020-222.984-27.213zM479.627 254.972c46.548 13.004 92.8 55.126 126.815 115.491 9.568 16.979 21.907 46.586 26.907 64.563 2.64 9.489 35.894 183.909 38.583 202.371 0.441 3.028-13.040 7.326-39.371 12.551-22.98 4.561-66.699 5.403-87.229 1.68-75.158-13.629-140.8-65.175-177.802-139.619-18.006-36.226-27.678-71.071-31.309-112.798-7.211-82.878 26.708-137.099 92.515-147.891 12.85-2.107 36.299-0.424 50.89 3.652zM438.228-25.003c-80.261 6.562-154.475 34.050-216.168 80.065-73.895 55.117-126.49 138.385-147.083 232.859-20.834 95.578-11.904 209.216 24.032 305.809 11.592 31.16 36.667 80.342 54.49 106.88 80.455 119.787 198.74 191.919 344.22 209.906 31.066 3.842 94.827 3.836 122.87-0.011 189.805-26.032 313.831-154.834 331.293-344.054 2.676-28.998 1.064-84.831-3.254-112.69-11.754-75.828-40.579-138.004-84.282-181.795-28.751-28.809-62.285-48.16-99.327-57.318-19.595-4.845-55.162-6.175-69.207-2.587-32.655 8.339-53.255 29.435-62.025 63.515-2.388 9.28-3.215 18.166-3.215 34.557v22.064l-29.12-0.17-14.144-21.678c-15.609-23.923-39.384-50.224-57.996-64.16-33.996-25.453-75.014-37.615-121.448-36.014-18.992 0.656-24.92 1.523-36.044 5.272-47.425 15.989-78.894 53.186-91.741 108.439-4.036 17.355-4.879 64.892-1.555 87.701 19.76 135.624 116.873 240.021 248.543 267.183 46.006 9.49 100.383 8.496 150.098-2.746 14.514-3.282 42.35-11.99 46.321-14.491 1.796-1.131-2.457-26.246-22.056-130.222-29.539-156.716-29.811-158.554-28.853-194.979 0.647-24.617 1.278-29.746 5.068-41.203 12.321-37.244 41.329-53.318 81.099-44.938 23.926 5.042 42.192 15.25 63.862 35.692 54.251 51.176 83.090 138.793 80.305 243.961-2.89 109.069-37.156 195.021-102.864 258.015-24.309 23.305-44.488 37.531-74.625 52.611-37.328 18.678-75.781 29.971-123.136 36.16-24.099 3.15-86.458 2.661-110.656-0.868-95.241-13.889-174.625-52.993-240.491-118.46-77.302-76.835-121.994-176.172-134.703-299.407-2.617-25.377-2.231-87.981 0.693-112.469 8.344-69.875 28.42-127.219 62.314-177.983 51.885-77.712 129.864-128.99 224.827-147.843 35.196-6.988 59.909-8.873 101.504-7.742 63.947 1.739 120.652 13.422 170.146 35.059 8.924 3.902 16.555 6.563 16.958 5.917 1.149-1.848 10.913-28.769 10.913-30.089 0-1.318-30.204-14.263-50.752-21.752-56.501-20.595-146.963-31.542-214.808-25.996zM477.42 259.496c44.842 12.423 89.398 52.659 122.166 110.324 9.217 16.219 21.104 44.503 25.92 61.675 2.543 9.065 34.578 175.682 37.168 193.317 0.424 2.892-12.562 6.997-37.927 11.99-22.137 4.357-64.254 5.162-84.032 1.604-72.402-13.020-135.638-62.259-171.283-133.372-17.346-34.606-26.662-67.892-30.16-107.752-6.947-79.17 25.728-130.966 89.124-141.274 12.379-2.013 34.968-0.405 49.024 3.488zM450.455-3.050c-81.788 6.728-157.415 34.909-220.28 82.086-75.302 56.508-128.896 141.874-149.881 238.731-21.23 97.989-12.13 214.491 24.489 313.521 11.813 31.946 37.365 82.369 55.527 109.575 81.986 122.809 202.522 196.759 350.769 215.2 31.658 3.938 96.632 3.933 125.207-0.011 193.416-26.688 319.802-158.74 337.598-352.731 2.728-29.73 1.084-86.97-3.316-115.532-11.977-77.74-41.35-141.485-85.885-186.38-29.298-29.535-63.47-49.374-101.217-58.764-19.968-4.966-56.212-6.331-70.524-2.653-33.277 8.55-54.268 30.177-63.205 65.117-2.434 9.515-3.276 18.624-3.276 35.428v22.621l-29.674-0.173-14.413-22.225c-15.906-24.526-40.133-51.492-59.099-65.778-34.642-26.094-76.441-38.564-123.76-36.921-19.354 0.671-25.395 1.561-36.729 5.405-48.327 16.393-80.395 54.529-93.487 111.174-4.113 17.792-4.971 66.528-1.585 89.912 20.136 139.045 119.097 246.075 253.272 273.922 46.881 9.73 102.293 8.71 152.954-2.815 14.79-3.364 43.156-12.292 47.203-14.856 1.831-1.159-2.504-26.908-22.475-133.506-30.101-160.669-30.378-162.553-29.402-199.896 0.659-25.237 1.302-30.497 5.164-42.241 12.555-38.184 42.115-54.663 82.642-46.071 24.381 5.169 42.995 15.635 65.076 36.593 55.283 52.466 84.672 142.292 81.833 250.113-2.945 111.82-37.864 199.939-104.821 264.523-24.772 23.893-45.335 38.478-76.045 53.939-38.039 19.149-77.222 30.726-125.479 37.072-24.557 3.23-88.103 2.728-112.761-0.89-97.053-14.239-177.948-54.328-245.066-121.448-78.773-78.773-124.315-180.616-137.265-306.958-2.667-26.016-2.275-90.199 0.706-115.305 8.503-71.637 28.961-130.427 63.5-182.472 52.872-79.672 132.335-132.243 229.105-151.572 35.866-7.164 61.048-9.097 103.435-7.937 65.164 1.782 122.947 13.761 173.383 35.943 9.093 4 16.87 6.729 17.28 6.066 1.17-1.894 11.121-29.495 11.121-30.848 0-1.35-30.779-14.623-51.718-22.302-57.577-21.115-149.759-32.339-218.895-26.652zM490.393 288.622c45.696 12.736 91.099 53.988 124.491 113.106 9.392 16.629 21.505 45.625 26.414 63.23 2.591 9.294 35.235 180.112 37.876 198.192 0.433 2.965-12.802 7.174-38.649 12.292-22.558 4.466-65.477 5.291-85.631 1.645-73.78-13.347-138.219-63.829-174.541-136.735-17.676-35.479-27.17-69.604-30.734-110.469-7.079-81.167 26.218-134.268 90.819-144.837 12.614-2.064 35.633-0.415 49.957 3.577zM455.935-36.21c-81.786 6.894-157.411 35.777-220.275 84.126-75.299 57.912-128.894 145.403-149.878 244.667-21.23 100.426-12.13 219.825 24.487 321.317 11.813 32.74 37.364 84.416 55.526 112.3 81.984 125.863 202.517 201.651 350.76 220.551 31.658 4.036 96.63 4.031 125.204-0.011 193.411-27.352 319.795-162.687 337.589-361.502 2.727-30.469 1.084-89.133-3.316-118.405-11.977-79.674-41.35-145.003-85.883-191.015-29.298-30.27-63.469-50.602-101.215-60.225-19.968-5.090-56.211-6.488-70.522-2.719-33.276 8.762-54.267 30.927-63.204 66.737-2.434 9.752-3.276 19.087-3.276 36.31v23.183l-29.673-0.176-14.413-22.778c-15.905-25.136-40.132-52.772-59.098-67.413-34.641-26.743-76.439-39.523-123.756-37.84-19.353 0.688-25.394 1.599-36.728 5.541-48.326 16.801-80.393 55.884-93.485 113.939-4.113 18.235-4.971 68.183-1.585 92.148 20.135 142.503 119.093 252.193 253.266 280.733 46.88 9.972 102.29 8.927 152.951-2.886 14.79-3.448 43.155-12.598 47.202-15.226 1.831-1.188-2.504-27.577-22.475-136.826-30.101-164.664-30.378-166.594-29.402-204.867 0.659-25.865 1.302-31.255 5.164-43.292 12.555-39.133 42.115-56.023 82.64-47.217 24.381 5.297 42.994 16.024 65.075 37.503 55.282 53.771 84.669 145.83 81.831 256.331-2.945 114.6-37.862 204.91-104.819 271.1-24.77 24.486-45.333 39.434-76.044 55.279-38.037 19.625-77.221 31.49-125.475 37.994-24.557 3.31-88.101 2.796-112.759-0.911-97.050-14.594-177.943-55.68-245.060-124.467-78.77-80.732-124.312-185.107-137.263-314.591-2.667-26.664-2.275-92.443 0.706-118.172 8.502-73.419 28.961-133.669 63.498-187.009 52.87-81.653 132.331-135.532 229.099-155.342 35.865-7.343 61.047-9.322 103.433-8.134 65.162 1.826 122.944 14.103 173.378 36.837 9.093 4.099 16.869 6.897 17.279 6.217 1.17-1.941 11.121-30.228 11.121-31.614 0-1.384-30.777-14.986-51.717-22.856-57.575-21.64-149.757-33.142-218.891-27.314zM495.872 262.717c45.694 13.052 91.097 55.331 124.487 115.919 9.392 17.042 21.504 46.759 26.413 64.802 2.591 9.525 35.235 184.59 37.874 203.12 0.433 3.038-12.801 7.352-38.648 12.598-22.558 4.578-65.474 5.423-85.629 1.686-73.778-13.68-138.215-65.417-174.538-140.136-17.676-36.36-27.17-71.335-30.733-113.216-7.079-83.185 26.218-137.607 90.817-148.439 12.614-2.115 35.633-0.426 49.956 3.665z" />
<glyph unicode="&#xe916;" glyph-name="et-icon-footer-location" data-tags="et-icon-footer-location" horiz-adv-x="800" d="M403.257 959.137v0.163c-1.096 0-2.174-0.066-3.251-0.066s-2.147 0.066-3.251 0.066v-0.163c-219.701-3.493-396.755-182.546-396.755-403.088 0-297.188 348.92-579.269 400-619.348 51.093 40.072 400 322.173 400 619.348 0 220.536-177.042 399.59-396.755 403.088zM403.257 382.591c-114.957 0-208.132 93.156-208.132 208.099 0 114.974 93.176 208.151 208.132 208.151s208.139-93.176 208.139-208.151c0-114.943-93.182-208.099-208.139-208.099z" />
<glyph unicode="&#xe917;" glyph-name="et-icon-footer-phone" data-tags="et-icon-footer-phone" d="M204.799 516.266c79.644-159.289 216.178-290.133 375.467-375.467l125.156 125.156c17.067 17.067 39.822 22.756 56.889 11.378 62.578-22.756 130.844-34.133 204.8-34.133 34.133 0 56.889-22.756 56.889-56.889v-193.422c0-34.133-22.756-56.889-56.889-56.889-534.756 0-967.111 432.356-967.111 967.111 0 34.133 22.756 56.889 56.889 56.889h199.111c34.133 0 56.889-22.756 56.889-56.889 0-68.267 11.378-136.533 34.133-204.8 5.689-17.067 0-39.822-11.378-56.889l-130.844-125.156z" />
<glyph unicode="&#xe918;" glyph-name="et-icon-eib-phone" data-tags="et-icon-eib-phone" d="M628.855 649.342l192.77 192.717-22.752 22.544c-29.401 29.401-80.776 29.401-110.176 0l-82.385-82.385c-14.752-14.752-22.856-34.336-22.856-55.114s8.103-40.362 22.752-55.063l22.649-22.7zM279.367 345.149c-29.401 29.401-80.776 29.401-110.176 0l-82.385-82.385c-14.701-14.752-22.804-34.336-22.804-55.114s8.103-40.362 22.908-55.166l22.7-22.44 192.355 192.355-22.596 22.752zM891.855 771.621l-18.389 18.389-192.614-192.614 33.764-33.713c4.934-4.934 7.584-11.428 7.584-18.389s-2.702-13.454-7.584-18.389l-290.167-290.167c-9.818-9.765-26.907-9.818-36.725 0l-33.764 33.764-192.302-192.717 18.389-18.389c13.505-13.505 64.724-57.4 158.745-57.4 83.943 0 221.080 36.986 397.383 213.237 351.826 351.931 164.043 548.024 155.681 556.388z" />
<glyph unicode="&#xe919;" glyph-name="et-icon-eib-returns" data-tags="et-icon-eib-returns" d="M1021.209 574.753c-6.015 17.272-23.287 11.114-27.141-10.776-13.565-77.324-39.55-227.829-53.406-300.529-1.254-7.17-14.049-20.259-21.365-20.017-120.284 4.090-522.631 9.338-522.631 9.338l-133.137 384.632-7.552 25.933c-1.348 3.562-2.599 6.835-3.369 8.76-8.853 23.045-23.626 38.062-36.181 46.913-12.415 8.9-22.713 12.077-24.154 12.555l-0.484 0.143-91.898 22.952c-6.158 12.751-25.598 22.036-48.791 22.036-28.197 0-51.099-13.614-51.099-30.504 0-16.794 22.902-30.457 51.099-30.457 9.142 0 17.611 1.537 25.119 4.186l101.232-25.405c1.639-0.531 7.605-2.981 14.244-8.034 7.409-5.726 15.779-14.437 21.073-28.246 7.027-18.334 44.506-122.116 80.069-220.804 17.8-49.366 35.122-97.577 48.068-133.423 11.307-31.659 19.294-53.646 21.026-58.409 0.289-1.59 1.155-6.304 1.106-11.741 0.050-5.82-0.913-12.319-3.512-17.366-2.599-5.102-6.062-9.285-14.34-12.993-25.694-11.257-40.708-36.327-40.895-62.306-0.193-16.356 6.593-33.73 20.927-46 14.288-12.22 34.547-18.766 59.521-18.766 6.639 0 16.167 0 27.619 0l33.873-0.096c-28.678-9.093-49.559-35.557-49.559-67.312 0-39.069 31.662-70.874 70.921-70.874 39.168 0 70.924 31.805 70.924 70.874 0 31.659-20.837 58.123-49.465 67.268l33.78-0.047c47.584-0.047 101.471-0.193 153.632-0.338 36.423-0.047 71.933-0.093 103.884-0.239l31.371-0.047c-27.473-9.72-47.342-35.702-47.342-66.595 0-39.066 31.849-70.874 70.97-70.874 39.215 0 70.871 31.808 70.871 70.874 0 30.746-19.533 56.633-46.863 66.545l31.131-0.096c11.884 0 18.719-0.050 18.719-0.050 0.093 0 0.093 0 0.093 0 2.313 0 3.754 0 3.754 0 10.732 0 19.346 8.614 19.346 19.253 0.096 10.633-8.568 19.291-19.197 19.39 0 0-446.081 1.009-524.606 1.009-18.573 0.047-28.871 4.714-34.258 9.384-5.388 4.764-7.409 10.102-7.602 16.744-0.193 10.586 7.217 22.707 17.514 26.899 16.505 6.928 27.812 18.955 33.777 31.371 2.885 5.916 4.618 11.741 5.773 17.368 3.559-0.817 7.22-1.394 11.067-1.491l505.213-10.294c0.478 0 0.674 0 0.913 0 0.236 0 0.481 0 0.624 0h2.31c0.528 0 0.77 0 0.96 0 11.257 0 21.654 3.991 29.83 10.534 8.083 6.593 14.434 15.974 16.356 27.421l49.22 292.688c0.624 3.608 0.913 7.22 0.913 10.776 0.003 7.643 2.795 21.356 0.003 28.284zM715.347 379.891c-16.499 97.481-67.511 148.18-140.435 187.331l-19.078-43.535c-7.089-16.175-20.038-28.62-36.505-35.046-32.922-12.862-72.872 4.819-85.565 37.321l-108.201 271.489c-3.279 8.244-3.127 17.392 0.443 25.539s10.189 14.451 18.465 17.608l272.755 104.403c32.852 12.856 72.814-4.621 85.661-37.575 6.403-16.444 6.030-34.407-1.056-50.583l-22.616-51.604c127.521-89.552 175.954-257.507 112.268-402.835l-13.276-30.288c-5.869-13.395-19.81-21.342-34.334-19.533-3.22 0.426-6.316 1.254-9.218 2.523-10.017 4.39-17.374 13.573-19.308 24.784zM572.567 642.316c66.113-30.983 135.219-73.499 176.511-153.924 19.443 107.571-29.609 218.806-128.064 275.608-14.527 8.375-26.201 13.352-26.201 13.352l46.411 105.903-241.813-92.437 95.876-240.568 46.44 105.964c0 0.006 22.208-10.079 30.84-13.897z" />
<glyph unicode="&#xe91a;" glyph-name="et-icon-eib-shipping" data-tags="et-icon-eib-shipping" d="M795.098-56.161c-1.109 1.741-54.607 104.527-118.885 228.416s-117.867 226.269-119.088 227.512c-1.425 1.45-35.443-30.957-95.055-90.555-87.086-87.065-92.833-93.317-92.8-100.952 0.019-4.476 3.599-37.398 7.954-73.16l7.917-65.021-75.264-75.595-87.341 166.265-82.187 42.908c-45.203 23.599-82.21 43.443-82.237 44.096s16.569 17.784 36.882 38.068l36.933 36.879 144.893-17.586 93.836 93.801c73.176 73.149 93.122 94.313 90.592 96.124-1.784 1.277-106.295 56.657-232.246 123.066l-229.003 120.744 94.585 94.585 565.342-149.823 129.254 128.996c90.596 90.416 132.379 130.563 139.703 134.237 6.745 3.383 16.245 5.62 26.799 6.309 20.763 1.357 36.215-4.712 49.958-19.622 12.771-13.855 16.91-24.306 16.853-42.557-0.088-28.19 1.506-26.282-143.641-171.842l-130.833-131.203 56.513-218.286c31.082-120.057 63.287-244.55 71.565-276.651l15.052-58.365-47.016-46.975c-34.934-34.902-47.535-46.162-49.033-43.811z" />
<glyph unicode="&#xe91b;" glyph-name="et-icon-eib-warranty" data-tags="et-icon-eib-warranty" d="M493.708 161.040l18.264 9.772 18.32-9.8 21.716-225.013 119.495 119.69 135.67-37.196-59.107 211.009 13.475 38.031 84.582 21.41-2.561 87.227 71.134 50.504-33.883 80.406 48.082 72.833-60.638 62.726 18.542 85.278-79.208 36.611-13.531 86.196-87.060 5.513-43.739 75.505-83.19-26.338-68.044 54.597-68.072-54.597-83.19 26.338-43.739-75.505-87.087-5.513-13.531-86.196-79.208-36.611 18.542-85.278-60.638-62.726 48.082-72.833-33.883-80.406 71.134-50.504-2.561-87.227 84.582-21.41 13.475-38.087-59.079-210.953 135.643 37.196 119.522-119.69 21.688 225.041zM511.972 848.719c169.748 0 307.451-137.675 307.451-307.423 0-169.776-137.675-307.451-307.451-307.451s-307.451 137.675-307.451 307.451c0 169.748 137.675 307.423 307.451 307.423v0zM511.972 790.363c137.536 0 249.096-111.532 249.096-249.068s-111.56-249.096-249.096-249.096c-137.536 0-249.096 111.532-249.096 249.096s111.56 249.068 249.096 249.068v0z" />
<glyph unicode="&#xe91c;" glyph-name="et-icon-product-popup-tab" data-tags="et-icon-product-popup-tab" d="M192 896v-768h768v768h-768zM896 192h-640v640h640v-640zM128 64v672l-64 64v-800h800l-64 64h-672zM352 704l160-160-192-192 96-96 192 192 160-160v416z" />
<glyph unicode="&#xe91d;" glyph-name="et-icon-blog-calendar" data-tags="et-icon-blog-calendar" d="M938.688 864h-138.688v64c0 17.696-14.304 32-32 32s-32-14.304-32-32v-64h-192v64c0 17.696-14.336 32-32 32s-32-14.304-32-32v-64h-192v64c0 17.696-14.336 32-32 32s-32-14.304-32-32v-64h-138.656c-47.136 0-85.344-38.176-85.344-85.312v-757.344c0-47.136 38.208-85.344 85.344-85.344h853.344c47.136 0 85.312 38.208 85.312 85.344v757.344c0 47.136-38.176 85.312-85.312 85.312zM960 21.344c0-11.776-9.568-21.344-21.312-21.344h-853.344c-11.776 0-21.344 9.568-21.344 21.344v757.344c0 11.744 9.568 21.312 21.344 21.312h138.656v-64c0-17.696 14.336-32 32-32s32 14.304 32 32v64h192v-64c0-17.696 14.336-32 32-32s32 14.304 32 32v64h192v-64c0-17.696 14.304-32 32-32s32 14.304 32 32v64h138.688c11.744 0 21.312-9.568 21.312-21.312v-757.344zM224 576h128v-96h-128zM224 416h128v-96h-128zM224 256h128v-96h-128zM448 256h128v-96h-128zM448 416h128v-96h-128zM448 576h128v-96h-128zM672 256h128v-96h-128zM672 416h128v-96h-128zM672 576h128v-96h-128z" />
<glyph unicode="&#xe91e;" glyph-name="et-icon-blog-user" data-tags="et-icon-blog-user" d="M530.16 890.56c-95.677-1.761-156.726-41.078-183-101.12-25.087-57.329-19.737-129.195-1.48-204.12-9.698-11.419-17.473-26.868-14.72-49.88l0.041-0.041c3.028-25.169 9.805-43.043 19.68-55.64 5.366-6.846 12.301-7.557 18.84-10.88 3.632-21.412 10-42.953 18.96-60.84 5.151-10.284 10.644-19.499 16.36-27.2 2.541-3.424 6.224-5.519 8.92-8.4 0.135-25.321 0.628-46.285-1.56-73-6.684-16.010-22.423-29.174-47.56-41.72-25.995-12.974-59.838-24.499-94.040-39.2s-69.123-32.705-96.96-60.88c-27.838-28.174-47.658-67.041-50.721-117.999l-1.32-21.72h821.76l-1.32 21.72c-3.056 50.939-22.79 89.779-50.52 117.96s-62.528 46.216-96.6 60.92c-34.072 14.704-67.743 26.189-93.64 39.16-25.042 12.543-40.749 25.723-47.44 41.76-2.19 26.767-1.656 47.753-1.52 73.16 2.651 2.889 6.324 5.030 8.8 8.44 5.613 7.73 10.997 16.919 16 27.2 8.715 17.908 14.887 39.391 18.44 60.72 6.494 3.323 13.387 3.999 18.72 10.8 9.871 12.587 16.659 30.501 19.68 55.64 2.704 22.445-4.631 37.676-13.96 49.12 9.997 32.481 22.53 84.974 18.32 138.84-2.299 29.412-9.702 58.943-27.36 83.36-16.092 22.251-42.165 37.854-75 44.64-21.413 28.246-60.464 39.2-105.4 39.2h-0.401zM530.72 849.56c41.562-0.039 68.202-12.224 75.84-25.64l5-8.76 10-1.4c28.487-3.959 44.725-15.117 56.24-31.040s17.76-37.949 19.68-62.52c3.841-49.142-10.131-106.807-19.040-133.6l-5.16-15.48 13.96-8.48c-0.883 0.536 8.129-5.31 6.080-22.32-2.41-20.108-7.597-30.583-11.28-35.28s-5.643-4.467-5.8-4.48l-16.88-1.36-1.8-16.88c-1.898-17.721-9.023-39.192-17.28-56.16-4.129-8.484-8.524-15.907-12.28-21.080s-7.803-7.91-5.84-6.88l-10.96-5.76v-12.4c0-29.648-1.19-53.745 1.92-88.080l0.24-2.72 0.96-2.56c11.692-31.431 38.859-50.704 68.6-65.6s63.73-26.32 95.8-40.16c32.070-13.84 61.872-29.959 83.6-52.040 17.306-17.587 28.123-40.899 33.88-70h-727.4c5.776 29.077 16.623 52.372 34 69.96 21.822 22.087 51.755 38.197 83.96 52.040s66.322 25.268 96.16 40.16c29.838 14.892 57.097 34.178 68.8 65.64l0.96 2.56 0.24 2.72c3.109 34.326 1.96 58.423 1.96 88.080v12.4l-11 5.76c1.868-0.978-2.296 1.875-6.16 7.080s-8.391 12.597-12.64 21.080c-8.498 16.966-15.809 38.423-17.68 55.96l-1.8 16.88-16.88 1.36c-0.156 0.013-2.117-0.219-5.8 4.48-3.679 4.694-8.857 15.168-11.28 35.24v0.041c-1.995 16.949 7.002 22.897 6.12 22.36l13 7.88-3.84 14.76c-19.281 74.203-22.297 141.884-2.24 187.719 20.039 45.794 60.545 74.895 146.040 76.52z" />
<glyph unicode="&#xe91f;" glyph-name="et-icon-blog-comments" data-tags="et-icon-blog-comments" d="M85.438 874.667h853.123c24.022 0 42.772-19.245 42.772-42.986v-554.028c0-23.832-19.15-42.986-42.772-42.986h-469.228l-122.294-139.75c-15.489-17.7-40.798-17.88-56.177 0l-120.196 139.75h-85.378c-23.735 0-42.622 19.245-42.622 42.986v554.028c0 23.832 19.15 42.986 42.772 42.986zM85.333 832v-554.667h107.359l126.109-151.969 138.187 151.969h481.677v554.667h-853.333zM222.728 704c-5.188 0-9.395-4.247-9.395-9.469v-23.728c0-5.23 4.146-9.469 9.395-9.469h535.878c5.188 0 9.395 4.247 9.395 9.469v23.728c0 5.23-4.146 9.469-9.395 9.469h-535.878zM222.728 576c-5.188 0-9.395-4.247-9.395-9.469v-23.728c0-5.23 4.146-9.469 9.395-9.469h535.878c5.188 0 9.395 4.247 9.395 9.469v23.728c0 5.23-4.146 9.469-9.395 9.469h-535.878zM222.26 448c-4.93 0-8.927-4.247-8.927-9.469v-23.728c0-5.23 4.053-9.469 8.927-9.469h366.146c4.93 0 8.927 4.247 8.927 9.469v23.728c0 5.23-4.053 9.469-8.927 9.469h-366.146z" />
<glyph unicode="&#xe920;" glyph-name="et-icon-my-cart" data-tags="et-icon-my-cart" horiz-adv-x="1249" d="M1245.66 713.123c-7.337 21.070-28.407 13.558-33.109-13.145-16.546-94.326-48.246-277.922-65.15-366.606-1.531-8.747-17.137-24.714-26.062-24.419-146.732 4.989-637.543 11.391-637.543 11.391l-162.41 469.202-9.212 31.635c-1.645 4.346-3.171 8.338-4.111 10.686-10.8 28.112-28.82 46.432-44.136 57.227-15.146 10.857-27.707 14.733-29.464 15.316l-0.591 0.174-112.104 27.999c-7.512 15.554-31.226 26.881-59.52 26.881-34.396 0-62.335-16.608-62.335-37.211 0-20.486 27.937-37.154 62.335-37.154 11.153 0 21.483 1.875 30.643 5.106l123.49-30.991c1.999-0.648 9.276-3.636 17.377-9.8 9.039-6.985 19.247-17.612 25.706-34.457 8.573-22.364 54.291-148.966 97.673-269.353 21.714-60.22 42.845-119.032 58.637-162.758 13.793-38.62 23.536-65.441 25.649-71.252 0.352-1.939 1.41-7.69 1.348-14.323 0.060-7.099-1.113-15.027-4.284-21.184-3.171-6.224-7.394-11.327-17.493-15.849-31.343-13.732-49.658-44.314-49.886-76.006-0.235-19.952 8.042-41.146 25.528-56.114 17.429-14.906 42.143-22.891 72.608-22.891 8.099 0 19.722 0 33.693 0l41.321-0.117c-34.984-11.092-60.455-43.375-60.455-82.112 0-47.659 38.623-86.457 86.514-86.457 47.78 0 86.517 38.798 86.517 86.457 0 38.62-25.419 70.903-60.341 82.059l41.208-0.057c58.046-0.057 123.782-0.235 187.411-0.413 44.431-0.057 87.749-0.114 126.725-0.292l38.269-0.057c-33.515-11.856-57.751-43.553-57.751-81.236 0-47.656 38.851-86.457 86.574-86.457 47.837 0 86.453 38.801 86.453 86.457 0 37.507-23.828 69.085-57.167 81.176l37.977-0.117c14.498 0 22.834-0.060 22.834-0.060 0.114 0 0.114 0 0.114 0 2.822 0 4.579 0 4.579 0 13.092 0 23.6 10.508 23.6 23.487 0.117 12.971-10.451 23.532-23.418 23.653 0 0-544.162 1.232-639.952 1.232-22.656 0.057-35.219 5.751-41.791 11.448-6.572 5.811-9.039 12.323-9.274 20.425-0.235 12.914 8.804 27.699 21.365 32.813 20.135 8.452 33.926 23.123 41.203 38.269 3.52 7.216 5.633 14.323 7.042 21.187 4.341-0.997 8.807-1.701 13.501-1.818l616.295-12.558c0.584 0 0.822 0 1.113 0 0.289 0 0.587 0 0.762 0h2.818c0.644 0 0.94 0 1.17 0 13.732 0 26.415 4.868 36.389 12.85 9.86 8.042 17.607 19.487 19.952 33.45l60.042 357.041c0.762 4.403 1.113 8.807 1.113 13.145 0.003 9.323 3.409 26.052 0.003 34.504z" />
<glyph unicode="&#xe921;" glyph-name="et-icon-vendor-login" data-tags="et-icon-vendor-login" horiz-adv-x="884" d="M884.364 960v-1024h-744.727v302.545h93.091v-209.455h558.545v837.818h-558.545v-209.455h-93.091v302.545h744.727zM512 680.727h-93.091l116.364-186.182h-535.273v-93.091h535.273l-116.364-186.182h93.091l139.636 232.727-139.636 232.727z" />
<glyph unicode="&#xe922;" glyph-name="et-icon-my-account" data-tags="et-icon-my-account" d="M514.214 950c-277.268 0-501.996-224.73-501.996-501.996s224.728-502.004 501.996-502.004 501.996 224.74 501.996 502.004c0 277.266-224.73 501.996-501.996 501.996zM514.214 908.166c253.736 0 460.164-206.428 460.164-460.164 0-111.63-39.994-214.086-106.38-293.852-45.878 19.16-154.178 56.744-221.218 76.538-5.718 1.796-6.618 2.084-6.618 25.88 0 19.652 8.088 39.442 15.974 56.192 8.538 18.2 18.668 48.798 22.306 76.252 10.172 11.808 24.020 35.094 32.926 79.478 7.802 39.118 4.166 53.354-1.020 66.714-0.532 1.41-1.104 2.798-1.512 4.188-1.962 9.172 0.734 56.826 7.436 93.798 4.616 25.37-1.186 79.316-36.114 123.944-22.060 28.21-64.262 62.832-141.35 67.652l-42.282-0.040c-75.782-4.782-118.024-39.402-140.084-67.612-34.928-44.63-40.728-98.576-36.112-123.926 6.74-36.99 9.396-84.644 7.476-93.632-0.408-1.572-0.98-2.962-1.552-4.372-5.148-13.36-8.824-27.596-0.98-66.714 8.864-44.384 22.714-67.672 32.926-79.478 3.596-27.452 13.728-58.052 22.306-76.252 6.25-13.318 9.192-31.436 9.192-57.050 0-23.796-0.9-24.084-6.252-25.778-69.326-20.468-179.668-60.34-220.808-78.356-67.692 80.132-108.586 183.57-108.586 296.424-0.002 253.74 206.426 460.166 460.162 460.166zM192.948 118.968c47.104 19.23 141.024 52.73 202.71 70.95 35.87 11.316 35.87 41.526 35.87 65.792 0 20.12-1.388 49.78-13.154 74.862-8.090 17.178-17.324 46.634-19.364 69.694-0.45 5.392-2.982 10.376-7.068 13.93-5.924 5.19-17.976 24.186-25.656 62.504-6.086 30.334-3.512 36.972-1.020 43.386 1.062 2.738 2.084 5.434 2.902 8.478 5.024 18.362-0.574 78.682-6.66 112.14-2.654 14.544 0.694 55.866 27.902 90.674 24.388 31.19 61.318 48.574 108.422 51.576l39.668 0.042c48.37-3.044 85.3-20.428 109.73-51.618 27.208-34.808 30.518-76.13 27.86-90.692-6.046-33.44-11.684-93.758-6.66-112.1 0.86-3.064 1.838-5.76 2.902-8.498 2.494-6.412 5.066-13.052-0.98-43.386-7.678-38.32-19.772-57.316-25.696-62.504-4.044-3.554-6.576-8.538-7.068-13.93-2.002-23.060-11.234-52.516-19.322-69.694-9.274-19.712-19.936-45.96-19.936-74.004 0-24.268 0-54.478 36.236-65.896 59.032-17.444 153.402-49.86 203.242-69.46-83.216-82.398-197.562-133.382-323.594-133.382-124.886 0-238.252 50.084-321.266 131.136z" />
<glyph unicode="&#xe923;" glyph-name="et-icon-info" data-tags="et-icon-info" d="M512-64c-282.764 0-512 229.236-512 512s229.236 512 512 512 512-229.236 512-512-229.236-512-512-512zM512 866.909c-231.377 0-418.909-187.532-418.909-418.909s187.532-418.909 418.909-418.909 418.909 187.532 418.909 418.909-187.532 418.909-418.909 418.909zM465.455 168.727c-46.545 0-46.545 46.545-46.545 46.545l46.545 232.727c0 0 0 46.545-46.545 46.545 0 0-46.545 0-46.545 46.545h139.636c0 0 46.545 0 46.545-46.545s-46.545-186.182-46.545-232.727 46.545-46.545 46.545-46.545h46.545c0 0 0-46.545-139.636-46.545zM558.545 634.182c-25.74 0-46.545 20.806-46.545 46.545s20.806 46.545 46.545 46.545 46.545-20.806 46.545-46.545-20.806-46.545-46.545-46.545z" />
<glyph unicode="&#xe924;" glyph-name="et-icon-btn-compare" data-tags="et-icon-btn-compare" d="M232.96 294.4c-15.36 0-25.6 10.24-25.6 25.6s10.24 25.6 25.6 25.6c51.2 0 102.4 20.48 138.24 56.32 10.24 10.24 25.6 10.24 35.84 0s10.24-25.6 0-35.84c-46.080-46.080-110.080-71.68-174.080-71.68zM512 960c-281.6 0-512-230.4-512-512s230.4-512 512-512c281.6 0 512 230.4 512 512s-230.4 512-512 512zM512-12.8c-253.44 0-460.8 207.36-460.8 460.8s207.36 460.8 460.8 460.8 460.8-207.36 460.8-460.8c0-253.44-207.36-460.8-460.8-460.8zM814.080 299.52l-71.68-71.68c-5.12-5.12-12.8-7.68-17.92-7.68-7.68 0-12.8 2.56-17.92 7.68-10.24 10.24-10.24 25.6 0 35.84l28.16 28.16h-58.88c-66.56 0-128 25.6-174.080 71.68l-128 128c-35.84 35.84-87.040 56.32-138.24 56.32-15.36 0-25.6 10.24-25.6 25.6s10.24 25.6 25.6 25.6c64 0 128-25.6 174.080-71.68l128-128c38.4-35.84 87.040-56.32 138.24-56.32h58.88l-28.16 28.16c-10.24 10.24-10.24 25.6 0 35.84s25.6 10.24 35.84 0l71.68-71.68c10.24-7.68 10.24-25.6 0-35.84zM814.080 558.080l-71.68-71.68c-5.12-5.12-12.8-7.68-17.92-7.68-7.68 0-12.8 2.56-17.92 7.68-10.24 10.24-10.24 25.6 0 35.84l28.16 28.16h-58.88c-51.2 0-102.4-20.48-138.24-56.32-5.12-5.12-12.8-7.68-17.92-7.68-7.68 0-12.8 2.56-17.92 7.68-10.24 10.24-10.24 25.6 0 35.84 46.080 46.080 107.52 71.68 174.080 71.68h58.88l-28.16 28.16c-10.24 10.24-10.24 25.6 0 35.84s25.6 10.24 35.84 0l71.68-71.68c10.24-7.68 10.24-25.6 0-35.84z" />
<glyph unicode="&#xe925;" glyph-name="et-icon-btn-oos" data-tags="et-icon-btn-oos" d="M512 960c-282.788 0-512-229.28-512-512.027 0-282.76 229.212-511.973 512-511.973s512 229.212 512 511.973c0 282.747-229.212 512.027-512 512.027zM512 71.7c-207.517 0-376.3 168.783-376.3 376.272 0 91.504 32.864 175.487 87.381 240.791l529.681-529.681c-65.291-54.504-149.244-87.381-240.763-87.381zM800.919 207.224l-529.681 529.695c65.291 54.504 149.244 87.381 240.763 87.381 207.504 0 376.285-168.851 376.285-376.313 0-91.519-32.864-175.472-87.368-240.763z" />
<glyph unicode="&#xe926;" glyph-name="et-icon-btn-qv" data-tags="et-icon-btn-qv" d="M512 768c-282.784 0-512-320-512-320s229.216-320 512-320 512 320 512 320-229.216 320-512 320zM512 256c-106.016 0-192 85.984-192 192s85.984 192 192 192 192-85.984 192-192-85.984-192-192-192zM512 576c-70.688 0-128-57.312-128-128s57.312-128 128-128 128 57.312 128 128-57.312 128-128 128z" />
<glyph unicode="&#xe927;" glyph-name="et-icon-btn-wishlist" data-tags="et-icon-btn-wishlist" d="M738.133 868.267c135.2 0 245.067-110.133 245.067-246.133 0-69.867-29.067-132.8-75.467-177.6l-395.733-399.467-402.667 406.667c-42.133 44.267-68.267 104.267-68.267 170.4 0 136 109.6 246.133 245.067 246.133 101.867 0 189.067-62.4 226.133-151.467 36.533 88.8 124 151.467 225.867 151.467zM738.133 909.333c-90.133 0-172.8-42.133-226.133-111.467-53.333 69.333-136 111.467-226.133 111.467-157.6 0-285.867-128.8-285.867-287.2 0-74.4 28.267-145.067 79.733-198.933l432.267-436.533 424.533 428.8c56 54.133 87.467 127.733 87.467 206.667 0 158.4-128.267 287.2-285.867 287.2v0z" />
<glyph unicode="&#xe928;" glyph-name="et-icon-discount" data-tags="et-icon-discount" d="M906.834 448.41c0 9.062-4.454 17.029-11.233 22.026l0.143 0.246-95.478 55.122 54.958 95.191-0.184 0.113c3.359 7.7 3.226 16.824-1.3 24.658-4.536 7.844-12.37 12.524-20.736 13.455v0.266h-110.264v109.947h-0.225c-0.942 8.356-5.622 16.179-13.455 20.705-7.854 4.536-16.978 4.669-24.699 1.28l-0.133 0.236-97.085-56.054-53.76 93.123-0.195-0.113c-4.997 6.758-12.954 11.203-22.006 11.203-9.062 0-17.039-4.454-22.026-11.233l-0.246 0.143-54.651-94.659-94.106 54.333-0.113-0.195c-7.711 3.359-16.824 3.226-24.658-1.3-7.854-4.526-12.524-12.37-13.466-20.736h-0.276v-109.302h-108.667v-0.215c-8.356-0.942-16.179-5.622-20.705-13.455-4.526-7.844-4.659-16.968-1.29-24.678l-0.236-0.143 53.719-93.051-96.195-55.542 0.113-0.195c-6.758-4.997-11.203-12.954-11.203-22.006 0-9.062 4.454-17.039 11.233-22.026l-0.143-0.246 95.478-55.122-54.958-95.191 0.195-0.113c-3.359-7.711-3.226-16.824 1.3-24.658 4.536-7.844 12.37-12.524 20.736-13.455v-0.276h110.244v-109.926h0.225c0.942-8.356 5.622-16.179 13.455-20.705 7.854-4.536 16.978-4.659 24.699-1.28l0.133-0.236 97.085 56.054 53.76-93.123 0.195 0.113c4.997-6.758 12.954-11.203 22.006-11.203 9.062 0 17.039 4.454 22.026 11.223l0.236-0.133 54.651 94.659 94.116-54.333 0.113 0.195c7.711-3.359 16.824-3.226 24.658 1.3 7.854 4.526 12.524 12.37 13.466 20.736h0.276v109.292h108.677v0.215c8.356 0.942 16.179 5.622 20.705 13.455 4.526 7.844 4.659 16.978 1.29 24.689l0.236 0.133-53.719 93.051 96.195 55.542-0.113 0.195c6.758 4.987 11.203 12.954 11.203 22.006z" />
<glyph unicode="&#xe929;" glyph-name="et-icon-btn-cart" data-tags="et-icon-btn-cart" d="M320 320c-0.192-0.004-0.418-0.007-0.645-0.007-15.41 0-28.276 10.893-31.318 25.398l-0.037 0.208-74.88 377.28c-9.115 44.275-47.761 77.098-94.078 77.12h-55.042c-17.673 0-32 14.327-32 32s14.327 32 32 32v0h55.040c0.010 0 0.021 0 0.033 0 77.038 0 141.36-54.446 156.584-126.958l0.183-1.042 76.16-377.6c0.479-2.074 0.753-4.456 0.753-6.902 0-15.677-11.274-28.721-26.156-31.468l-0.197-0.030zM352 96h-59.52c-72.813 0.465-131.659 59.599-131.659 132.477 0 68.595 52.133 125.015 118.94 131.797l0.56 0.046 589.12 53.44 51.52 258.24h-664.96c-17.673 0-32 14.327-32 32s14.327 32 32 32v0h704c9.926-0.068 18.77-4.645 24.594-11.782l0.046-0.058c4.875-5.586 7.848-12.942 7.848-20.992 0-1.968-0.178-3.894-0.518-5.763l0.029 0.195-64-320c-2.831-13.813-14.264-24.268-28.353-25.59l-0.127-0.010-613.44-55.68c-36.283-1.756-65.035-31.6-65.035-68.16 0-37.685 30.55-68.235 68.235-68.235 1.126 0 2.245 0.027 3.357 0.081l-0.157-0.006h59.52c17.673 0 32-14.327 32-32s-14.327-32-32-32v0zM832 0c-70.692 0-128 57.308-128 128s57.308 128 128 128c70.692 0 128-57.308 128-128v0c0-70.692-57.308-128-128-128v0zM832 192c-35.346 0-64-28.654-64-64s28.654-64 64-64c35.346 0 64 28.654 64 64v0c0 35.346-28.654 64-64 64v0zM448 0c-70.692 0-128 57.308-128 128s57.308 128 128 128c70.692 0 128-57.308 128-128v0c0-70.692-57.308-128-128-128v0zM448 192c-35.346 0-64-28.654-64-64s28.654-64 64-64c35.346 0 64 28.654 64 64v0c0 35.346-28.654 64-64 64v0zM736 96h-192c-17.673 0-32 14.327-32 32s14.327 32 32 32v0h192c17.673 0 32-14.327 32-32s-14.327-32-32-32v0z" />
<glyph unicode="&#xe92a;" glyph-name="et-icon-menu-arrow" data-tags="et-icon-menu-arrow" d="M342 724.667l468-298-468-298v596z" />
<glyph unicode="&#xe92b;" glyph-name="et-icon-guide" data-tags="et-icon-guide" d="M861.303 957.753h-699.339c-81.537 0-145.677-66.105-145.677-150.292v-722.152c0-84.2 64.14-151.738 145.677-151.738h699.339c81.537 0 146.423 67.539 146.423 151.738v722.152c0 84.2-64.886 150.292-146.423 150.292zM923.538 85.309c0-34.673-28.668-62.888-62.248-62.888h-699.339c-33.58 0-61.502 28.217-61.502 62.888v722.152c0 34.673 27.924 61.442 61.502 61.442h699.339c33.58 0 62.248-26.769 62.248-61.442v-722.152zM759.309 592.972h-324.753c-24.016 0-43.498-17.283-43.498-42.095s19.466-42.095 43.498-42.095h324.753c24.016 0 43.498 17.283 43.498 42.095s-19.47 42.095-43.498 42.095zM316.48 550.717c0-24.81-19.468-44.914-43.498-44.914s-43.498 20.104-43.498 44.914c0 24.81 19.468 44.914 43.498 44.914s43.498-20.104 43.498-44.914zM759.309 419.946h-324.753c-24.016 0-43.498-19.631-43.498-44.425s19.466-44.425 43.498-44.425h324.753c24.016 0 43.498 19.631 43.498 44.425s-19.47 44.425-43.498 44.425zM316.48 374.077c0-24.81-19.468-44.914-43.498-44.914s-43.498 20.104-43.498 44.914c0 24.81 19.468 44.914 43.498 44.914s43.498-20.104 43.498-44.914zM759.309 242.231h-324.753c-24.016 0-43.498-19.631-43.498-44.425s19.466-44.425 43.498-44.425h324.753c24.016 0 43.498 19.631 43.498 44.425s-19.47 44.425-43.498 44.425zM316.48 197.433c0-24.81-19.468-44.914-43.498-44.914s-43.498 20.104-43.498 44.914c0 24.81 19.468 44.914 43.498 44.914s43.498-20.104 43.498-44.914zM759.309 770.687h-505.465c-24.016 0-43.498-19.628-43.498-44.425s19.466-44.425 43.498-44.425h505.469c24.016 0 43.498 19.628 43.498 44.425-0.004 24.812-19.473 44.425-43.501 44.425z" />
<glyph unicode="&#xe92c;" glyph-name="et-icon-mail" data-tags="et-icon-mail" d="M896 800h-768c-70.688 0-128-57.344-128-128v-416c0-70.688 57.312-128 128-128h768c70.688 0 128 57.312 128 128v416c0 70.656-57.312 128-128 128zM64 632l223.968-168-223.968-168v336zM960 256c0-35.328-28.736-64-64-64h-768c-35.296 0-64 28.672-64 64l250.624 188 139.776-104.864c17.056-12.736 37.312-19.2 57.6-19.2 20.256 0 40.512 6.432 57.568 19.2l139.808 104.864 250.624-188zM960 296l-224 168 224 168v-336zM550.368 364.736c-11.168-8.384-24.416-12.8-38.368-12.8s-27.232 4.448-38.4 12.8l-409.6 307.264c0 35.296 28.704 64 64 64h768c35.264 0 64-28.704 64-64l-409.632-307.264z" />
<glyph unicode="&#xe92d;" glyph-name="et-icon-phone" data-tags="et-icon-phone" d="M512 894.568c-159.087 0-318.556-28.471-376.418-85.219-48.007-47.079-64.010-130.251-69.405-182.911 0 0-0.743-5.204-0.743-7.442 0-20.65 16.742-37.212 37.212-37.212 2.419 0 91.918 7.258 145.877 11.723 1.298 0.188 2.607 0.373 3.906 0.743 20.097 0.555 36.289 16.933 36.289 37.212l0.18 73.314c0 22.7 18.428 40.937 41.13 40.937h363.944c22.706 0 41.136-18.235 41.136-40.937l0.182-73.314c0-20.279 16.189-36.657 36.284-37.212 1.29-0.373 2.599-0.555 3.912-0.743 53.963-4.463 143.46-11.723 145.871-11.723 20.462 0 37.216 16.562 37.216 37.212 0 2.238-0.743 7.442-0.743 7.442-5.399 52.66-21.383 135.83-69.392 182.911-57.881 56.748-217.35 85.219-376.437 85.219zM512 410.784c-41.122 0-74.428-33.305-74.428-74.426s33.307-74.424 74.428-74.424 74.426 33.303 74.426 74.424-33.305 74.426-74.426 74.426zM456.18 578.251v46.516c0 25.676-20.842 46.516-46.516 46.516s-46.516-20.842-46.516-46.516v-46.516l-251.019-268.13c-17.297-16.935-28.092-40.559-28.092-66.615v-74.615c0-41.122 33.309-74.424 74.428-74.424h18.608v-46.522c0-25.674 20.845-46.512 46.518-46.512s46.516 20.838 46.516 46.512v46.522h483.787v-46.522c0-25.674 20.836-46.512 46.52-46.512 25.674 0 46.512 20.838 46.512 46.512v46.522h18.608c41.122 0 74.426 33.303 74.426 74.424v74.615c0 26.059-10.793 49.682-28.092 66.615l-251.009 268.13v46.516c0 25.676-20.847 46.516-46.52 46.516s-46.514-20.842-46.514-46.516v-46.516h-111.645zM512 485.212c82.244 0 148.859-66.613 148.859-148.855 0-82.244-66.613-148.861-148.859-148.861-82.244 0-148.855 66.615-148.855 148.861 0 82.244 66.611 148.855 148.855 148.855z" />
<glyph unicode="&#xe92e;" glyph-name="et-icon-menu1" data-tags="et-icon-menu1" d="M1024 755.2c0-28.276-22.925-51.2-51.2-51.2h-921.6c-28.276 0-51.2 22.925-51.2 51.2v0c0 28.276 22.925 51.2 51.2 51.2h921.6c28.276 0 51.2-22.925 51.2-51.2v0zM1024 550.4c0-28.276-22.925-51.2-51.2-51.2h-921.6c-28.276 0-51.2 22.925-51.2 51.2v0c0 28.276 22.925 51.2 51.2 51.2h921.6c28.276 0 51.2-22.925 51.2-51.2v0zM1024 345.6c0-28.276-22.925-51.2-51.2-51.2h-921.6c-28.276 0-51.2 22.925-51.2 51.2v0c0 28.276 22.925 51.2 51.2 51.2h921.6c28.276 0 51.2-22.925 51.2-51.2v0zM1024 140.8c0-28.276-22.925-51.2-51.2-51.2h-921.6c-28.276 0-51.2 22.925-51.2 51.2v0c0 28.276 22.925 51.2 51.2 51.2h921.6c28.276 0 51.2-22.925 51.2-51.2v0z" />
<glyph unicode="&#xe92f;" glyph-name="et-icon-btn-call" data-tags="et-icon-btn-call" horiz-adv-x="880" d="M442.575 696v0c87.862 0 159.428-71.46 159.428-159.606v-584.394h-318.858v584.394c0 88.252 71.388 159.606 159.428 159.606zM442.575 660.57c-68.484 0-124-55.658-124-124.248v-548.894h248v548.894c0 68.626-55.658 124.248-124 124.248v0zM442.575 625.142v0c49.246 0 88.572-39.822 88.572-88.926v-123.646h-177.142v123.646c0 48.926 39.644 88.926 88.572 88.926zM442.575 589.712c-29.334 0-53.142-24.056-53.142-53.178v-88.536h106.286v88.536c0 29.37-23.596 53.178-53.142 53.178v0zM354.004 306.286v-35.428h177.142v35.428h-177.142zM354.004 235.428v-35.428h177.142v35.428h-177.142zM424.862 944v-177.142h35.428v177.142h-35.428zM743.007 826.908l-125.276-125.276 25.048-25.048 125.276 125.276-25.048 25.048zM885.15 519.14h-177.142v-35.428h177.142v35.428zM-0.001 483.712h177.142v35.428h-177.142v-35.428zM117.094 801.86l125.276-125.276 25.048 25.048-125.276 125.276-25.048-25.048z" />
<glyph unicode="&#xe930;" glyph-name="et-icon-arrow-right" data-tags="et-icon-arrow-right" d="M652.364 447.933l-365.619 379.904c-13.722 13.824-13.722 36.198 0 50.125 13.722 13.824 35.891 13.824 49.613 0l400.896-404.89c13.722-13.875 13.722-36.301 0-50.125l-400.896-404.89c-13.722-13.875-35.891-13.824-49.613 0-13.722 13.773-13.722 36.198 0 50.125l365.619 379.75z" />
<glyph unicode="&#xe931;" glyph-name="et-icon-arrow-top" data-tags="et-icon-arrow-top" d="M512.072 611.212l-441.731-425.123c-16.074-15.955-42.089-15.955-58.283 0-16.074 15.955-16.074 41.733 0 57.687l470.784 466.14c16.133 15.955 42.209 15.955 58.283 0l470.784-466.14c16.133-15.955 16.074-41.733 0-57.687-16.014-15.955-42.089-15.955-58.283 0l-441.552 425.123z" />
<glyph unicode="&#xe932;" glyph-name="et-icon-arrow-down" data-tags="et-icon-arrow-down" d="M511.921 284.788l441.731 425.123c16.074 15.955 42.089 15.955 58.283 0 16.074-15.955 16.074-41.733 0-57.687l-470.784-466.14c-16.133-15.955-42.209-15.955-58.283 0l-470.784 466.14c-16.133 15.955-16.074 41.733 0 57.687 16.014 15.955 42.089 15.955 58.283 0l441.552-425.123z" />
<glyph unicode="&#xe933;" glyph-name="et-icon-arrow-left" data-tags="et-icon-arrow-left" d="M737.254 68.182c13.722-13.926 13.722-36.301 0-50.125s-35.891-13.875-49.613 0l-400.896 404.89c-13.722 13.824-13.722 36.198 0 50.125l400.896 404.89c13.722 13.824 35.891 13.824 49.613 0 13.722-13.875 13.722-36.301 0-50.125l-365.619-379.853 365.619-379.802z" />
<glyph unicode="&#xe934;" glyph-name="et-icon-blocked" data-tags="et-icon-blocked" d="M874.040 810.040c-96.706 96.702-225.28 149.96-362.040 149.96s-265.334-53.258-362.040-149.96c-96.702-96.706-149.96-225.28-149.96-362.040s53.258-265.334 149.96-362.040c96.706-96.702 225.28-149.96 362.040-149.96s265.334 53.258 362.040 149.96c96.702 96.706 149.96 225.28 149.96 362.040s-53.258 265.334-149.96 362.040zM896 448c0-82.814-26.354-159.588-71.112-222.38l-535.266 535.268c62.792 44.758 139.564 71.112 222.378 71.112 211.738 0 384-172.262 384-384zM128 448c0 82.814 26.354 159.586 71.112 222.378l535.27-535.268c-62.794-44.756-139.568-71.11-222.382-71.11-211.738 0-384 172.262-384 384z" />
<glyph unicode="&#xe935;" glyph-name="et-icon-check" data-tags="et-icon-check" d="M954.857 636.571q0-22.857-16-38.857l-491.429-491.429q-16-16-38.857-16t-38.857 16l-284.571 284.571q-16 16-16 38.857t16 38.857l77.714 77.714q16 16 38.857 16t38.857-16l168-168.571 374.857 375.429q16 16 38.857 16t38.857-16l77.714-77.714q16-16 16-38.857z" />
<glyph unicode="&#xe936;" glyph-name="et-icon-vendor-contact-address" data-tags="et-icon-vendor-contact-address" d="M515.413 949.76c-204.8 0-341.333-136.533-341.333-334.507 0-266.24 245.76-597.333 310.613-662.187 3.413-3.413 10.24-6.827 17.067-6.827 0 0 0 0 0 0 6.827 0 13.653 3.413 17.067 10.24 34.133 37.547 327.68 378.88 327.68 658.773 3.413 232.107-163.84 334.507-331.093 334.507zM501.76 11.093c-78.507 92.16-276.48 378.88-276.48 604.16 0 174.080 112.64 283.307 290.133 283.307 129.707 0 283.307-75.093 283.307-283.307 0-201.387-177.493-467.627-296.96-604.16zM512 751.787c-75.093 0-136.533-61.44-136.533-136.533s61.44-136.533 136.533-136.533 136.533 61.44 136.533 136.533c0 75.093-61.44 136.533-136.533 136.533zM512 529.92c-47.787 0-85.333 37.547-85.333 85.333s37.547 85.333 85.333 85.333 85.333-37.547 85.333-85.333c0-47.787-37.547-85.333-85.333-85.333z" />
<glyph unicode="&#xe937;" glyph-name="et-icon-vendor-contact-fax" data-tags="et-icon-vendor-contact-fax" d="M976 608h-272v256h-576v-256h-80c-26.51 0-48-21.49-48-48v-480c0-26.51 21.49-48 48-48h928c26.51 0 48 21.49 48 48v480c0 26.51-21.49 48-48 48zM96 256h640v-192h-640v192zM768 576h160v-512h-160v512zM160 832h512v-224h-512v224zM704 576h32v-288h-640v288h608zM32 80v480c0 8.837 7.163 16 16 16h16v-512h-16c-8.837 0-16 7.163-16 16zM992 80c0-8.837-7.163-16-16-16h-16v512h16c8.837 0 16-7.163 16-16v-480zM192 800h256v-32h-256v32zM192 736h416v-32h-416v32zM192 672h192v-32h-192v32zM800 160h96v-32h-96v32zM800 224h96v-32h-96v32zM800 288h96v-32h-96v32zM880 480c0-17.673-14.327-32-32-32s-32 14.327-32 32c0 17.673 14.327 32 32 32s32-14.327 32-32z" />
<glyph unicode="&#xe938;" glyph-name="et-icon-vendor-contact-mail" data-tags="et-icon-vendor-contact-mail" d="M969.496 767.282h-955.060v-637.17h995.564v637.17h-40.504zM929.674 727.458l-384.616-384.614c-17.538-17.538-48.146-17.538-65.684 0l-384.674 384.614h834.974zM54.256 711.594l258.574-258.536-258.574-258.576v517.112zM86.028 169.942l254.978 254.94 110.212-110.194c16.276-16.296 37.956-25.28 60.998-25.28s44.722 8.984 60.998 25.28l110.212 110.212 254.958-254.958h-852.356zM970.178 194.462l-258.576 258.594 258.574 258.594v-517.188z" />
<glyph unicode="&#xe939;" glyph-name="et-icon-vendor-contact-phone" data-tags="et-icon-vendor-contact-phone" d="M528.574 908.957c-244.866 0-443.732-198.868-443.732-443.732 0-86.86 25.024-167.935 67.359-234.988-17.619-61.933-49.211-178.855-49.211-178.855-0.374-1.333-0.589-2.865-0.589-4.446 0-9.427 7.642-17.068 17.068-17.068 1.844 0 3.62 0.293 5.284 0.834l173.682 55.14c67.11-40.792 145.936-64.35 230.139-64.35 244.866 0 443.734 198.87 443.734 443.734s-198.869 443.732-443.734 443.732zM528.574 874.824c226.419 0 409.602-183.181 409.602-409.6 0-226.417-183.183-409.602-409.602-409.602-80.526 0-155.474 23.184-218.771 63.254-2.586 1.661-5.743 2.647-9.13 2.647-1.844 0-3.62-0.292-5.284-0.834l-151.243-48.019c9.633 35.556 29.585 109.024 42.928 155.588 0.414 1.4 0.652 3.009 0.652 4.673 0 3.51-1.060 6.773-2.877 9.486l0.076-0.081c-41.294 62.795-65.951 139.913-65.951 222.887 0 226.417 183.181 409.6 409.6 409.6zM355.008 741.891c-3.36-0.097-6.673-0.333-9.885-0.625-12.848-1.168-24.203-3.463-24.203-3.463-3.436-0.703-6.408-2.354-8.721-4.666v-0.002c0 0-101.896-101.223-55.061-222.994 44.499-115.695 166.232-282.423 346.197-309.418 88.759-13.314 144.827 7.038 177.799 40.010s41.949 75.552 46.367 102.063c0.148 0.843 0.232 1.814 0.232 2.804 0 6.386-3.507 11.954-8.701 14.88-26.772 14.852-49.865 29.541-68.542 41.689-18.523 12.047-32.008 21.348-42.836 26.805-6.016 3.812-13.13 6.104-20.721 6.104-8.485 0-16.503-2.784-22.92-7.465-4.326-3.155-3.613-3.387-4.42-4.391s-1.591-2.047-2.498-3.266c-1.813-2.438-4.054-5.531-6.703-9.146-5.298-7.23-12.195-16.489-19.617-25.5s-15.444-17.783-22.299-23.689c-5.028-4.332-9.6-6.308-10.988-7.068-1.421 0.456-5.002 1.366-9.109 3.275-6.5 3.021-15.174 7.73-24.98 13.691-19.614 11.922-43.893 28.882-67.225 48.066s-45.76 40.686-61.795 61.195c-13.603 17.4-21.892 34.014-24.113 46.338 14.284 14.72 24.323 26.779 31.037 37.969 7.605 12.675 10.965 25.138 10.965 36.516 0 6.4-1.442 10.165-3.105 15.117s-3.853 10.406-6.445 16.361c-5.185 11.911-11.982 25.753-19.041 39.328s-14.357 26.826-20.539 37.404c-3.091 5.289-5.893 9.897-8.334 13.66s-3.686 6.082-7.266 9.662c-8.167 8.168-15.558 8.028-22.359 8.551-3.401 0.262-6.81 0.302-10.17 0.205zM356.027 707.746c2.473 0.069 4.732 0.045 6.531-0.094 0.788-0.061 1.402-0.232 1.928-0.398 0.551-0.745 1.055-1.392 1.682-2.357 1.992-3.070 4.589-7.329 7.498-12.307 5.818-9.956 12.919-22.838 19.727-35.93s13.346-26.448 18.027-37.203c2.341-5.378 4.217-10.126 5.387-13.607s1.328-6.381 1.328-4.248c0-5.689-0.907-10.295-6.102-18.953s-15.003-20.682-31.566-37.246c-3.089-3.088-5-7.355-5-12.068 0-25.837 13.656-50.087 32.021-73.578s42.338-46.254 67.006-66.537c24.668-20.283 49.99-37.991 71.176-50.869 10.593-6.439 20.12-11.663 28.32-15.475s13.507-6.875 23.344-6.875c14.636 0 24.054 7.687 33.424 15.762s18.253 17.999 26.365 27.848c8.112 9.849 15.374 19.615 20.803 27.023 2.714 3.704 4.98 6.832 6.557 8.951 0.373 0.501 0.529 0.692 0.813 1.064 0.493 0.182 1.023 0.295 1.639 0.295 1.131 0 2.051-0.359 2.736-0.859 0.703-0.519 1.499-1.012 2.335-1.438 6.29-3.142 20.962-12.791 39.874-25.092 16.35-10.634 36.572-23.444 59.635-36.664-4.725-23.146-13.429-50.939-34.514-72.023-24.628-24.628-66.693-42.675-148.602-30.389-161.368 24.205-278.567 181.745-319.402 287.916-33.893 88.122 28.452 165.558 43.883 182.859 3.905 0.657 9.14 1.454 15.334 2.018 2.655 0.241 5.341 0.405 7.814 0.475zM686.729 402.135c-0.021-0.043-0.646-0.504-0.785-0.633 0.058 0.074 0.212 0.279 0.256 0.334 0.149 0.185 0.6 0.442 0.529 0.299z" />
<glyph unicode="&#xe93a;" glyph-name="et-icon-vendor-contact-website" data-tags="et-icon-vendor-contact-website" d="M512.004 946c-0.136 0-0.274 0-0.426 0-0.058 0-0.122 0-0.196 0-0.196 0-0.39-0.040-0.586-0.040-274.504-0.622-496.796-223.32-496.796-497.96 0-274.562 222.292-497.3 496.796-497.96 0.196 0 0.39-0.040 0.586-0.040 0.074 0 0.136 0 0.196 0 0.152 0 0.29 0 0.426 0 274.984 0 497.996 223.012 497.996 498 0 275.028-223.012 498-497.996 498zM531.914 647.978c52.796 1.44 104.192 8.404 153.64 20.464 14.942-58.71 24.164-126.368 25.64-200.522h-179.282v180.058zM531.914 687.818v215.19c53.73-14.862 108.122-86.45 142.79-196.244-45.99-11.086-93.728-17.546-142.79-18.946zM492.084 903.476v-215.658c-49.448 1.4-97.578 7.976-143.934 19.258 34.956 110.456 89.874 182.316 143.934 196.4zM492.084 648.018v-180.096h-180.506c1.458 74.272 10.738 142.008 25.658 200.756 49.858-12.178 101.624-19.26 154.848-20.66zM271.484 467.92h-217.138c4.396 102.4 42.544 196.242 103.626 270.554 44.354-24.434 91.412-44.432 140.708-59.372-16.088-63.532-25.738-135.158-27.196-211.182zM271.484 428.080c1.458-75.984 11.108-147.61 27.198-211.144-49.278-14.978-96.354-34.976-140.708-59.408-61.082 74.31-99.23 168.15-103.626 270.552h217.136zM311.578 428.080h180.506v-179.864c-53.222-1.4-105.008-8.522-154.866-20.736-14.922 58.708-24.182 126.404-25.64 200.6zM492.084 208.416v-215.892c-54.098 14.124-109.054 86.062-143.992 196.634 46.374 11.282 94.522 17.856 143.992 19.258zM531.914-7.008v215.424c49.062-1.402 96.8-7.898 142.828-18.986-34.668-109.872-89.098-181.576-142.828-196.438zM531.914 248.216v179.864h179.282c-1.476-74.076-10.7-141.656-25.562-200.328-49.528 12.062-100.884 19.064-153.72 20.464zM751.27 428.080h218.382c-4.394-102.402-42.524-196.206-103.606-270.516-44.708 24.59-92.172 44.742-141.894 59.76 16.066 63.458 25.676 134.928 27.118 210.756zM751.27 467.92c-1.442 75.944-11.090 147.454-27.156 210.95 49.684 15.018 97.152 35.132 141.816 59.72 61.16-74.31 99.328-168.192 103.722-270.67h-218.382zM838.5 769.016c-39.644-21.086-81.472-38.516-125.164-51.746-23.304 74.934-55.988 136.094-94.66 176.246 84.816-20.35 160.566-64.234 219.824-124.5zM403.748 893.126c-38.46-40.074-71.004-100.962-94.212-175.506-43.266 13.19-84.74 30.464-124.014 51.396 58.862 59.876 134.032 103.646 218.226 124.11zM185.384 127.14c39.314 20.97 80.808 38.244 124.112 51.434 23.208-74.622 55.752-135.588 94.25-175.7-84.25 20.502-159.458 64.312-218.362 124.266zM618.676 2.524c38.714 40.152 71.394 101.352 94.7 176.402 43.73-13.27 85.594-30.66 125.242-51.824-59.258-60.306-135.048-104.268-219.942-124.578z" />
<glyph unicode="&#xe93b;" glyph-name="et-icon-minus" data-tags="et-icon-minus" d="M170.667 917.333h682.667q52.992 0 90.496-37.504t37.504-90.496v-682.667q0-52.992-37.504-90.496t-90.496-37.504h-682.667q-52.992 0-90.496 37.504t-37.504 90.496v682.667q0 52.992 37.504 90.496t90.496 37.504zM853.333 832h-682.667q-17.664 0-30.165-12.501t-12.501-30.165v-682.667q0-17.664 12.501-30.165t30.165-12.501h682.667q17.664 0 30.165 12.501t12.501 30.165v682.667q0 17.664-12.501 30.165t-30.165 12.501zM341.333 490.667h341.333q17.664 0 30.165-12.501t12.501-30.165-12.501-30.165-30.165-12.501h-341.333q-17.664 0-30.165 12.501t-12.501 30.165 12.501 30.165 30.165 12.501z" />
<glyph unicode="&#xe93c;" glyph-name="et-icon-plus" data-tags="et-icon-plus" d="M170.667 917.333h682.667q52.992 0 90.496-37.504t37.504-90.496v-682.667q0-52.992-37.504-90.496t-90.496-37.504h-682.667q-52.992 0-90.496 37.504t-37.504 90.496v682.667q0 52.992 37.504 90.496t90.496 37.504zM853.333 832h-682.667q-17.664 0-30.165-12.501t-12.501-30.165v-682.667q0-17.664 12.501-30.165t30.165-12.501h682.667q17.664 0 30.165 12.501t12.501 30.165v682.667q0 17.664-12.501 30.165t-30.165 12.501zM512 661.333q17.664 0 30.165-12.501t12.501-30.165v-128h128q17.664 0 30.165-12.501t12.501-30.165-12.501-30.165-30.165-12.501h-128v-128q0-17.664-12.501-30.165t-30.165-12.501-30.165 12.501-12.501 30.165v128h-128q-17.664 0-30.165 12.501t-12.501 30.165 12.501 30.165 30.165 12.501h128v128q0 17.664 12.501 30.165t30.165 12.501z" />
<glyph unicode="&#xe93d;" glyph-name="et-icon-quote" data-tags="et-icon-quote" horiz-adv-x="1352" d="M737.526 692.204c0 80.814 27.116 145.572 81.428 194.273 54.313 48.742 121.938 73.114 202.629 73.114 103.096 0 183.828-32.727 242.319-98.181 58.491-65.413 87.777-152.494 87.777-261.12 0-111.37-17.367-206.111-52.224-284.099-34.816-77.947-76.554-142.664-125.379-194.273-48.66-51.528-99.533-91.914-152.494-121.16-52.879-29.245-98.836-50.749-137.83-64.758l-133.734 225.608c55.706 22.323 103.096 57.836 142.049 106.578 39.035 48.742 61.276 100.966 66.888 156.631-55.665 0-106.578 24.453-152.535 73.155-45.957 48.742-68.895 113.5-68.895 194.232zM14.705 692.204c0 80.814 27.156 145.572 81.469 194.273 54.313 48.783 121.897 73.114 202.629 73.114 103.137 0 183.828-32.727 242.319-98.181 58.532-65.413 87.777-152.494 87.777-261.12 0-111.37-17.367-206.111-52.224-284.099-34.816-77.947-76.554-142.664-125.338-194.273-48.66-51.528-99.574-91.914-152.535-121.16-52.879-29.245-98.796-50.749-137.83-64.758l-133.693 225.608c55.706 22.323 103.055 57.836 142.008 106.578 39.035 48.742 61.317 100.966 66.888 156.631-55.665 0-106.578 24.453-152.494 73.155-45.998 48.742-68.977 113.5-68.977 194.232z" />
<glyph unicode="&#xe93e;" glyph-name="et-icon-clear" data-tags="et-icon-clear" d="M512 960c-282.784 0-512-229.216-512-512s229.216-512 512-512 512 229.216 512 512-229.216 512-512 512zM512 32c-229.76 0-416 186.24-416 416s186.24 416 416 416 416-186.24 416-416-186.24-416-416-416zM672 704l-160-160-160 160-96-96 160-160-160-160 96-96 160 160 160-160 96 96-160 160 160 160z" />
<glyph unicode="&#xe93f;" glyph-name="et-icon-btn-clock" data-tags="et-icon-btn-clock" d="M512 640c-35.328 0-64-28.672-64-64v-166.4l-45.056-45.024c-16-16-18.944-31.072-18.944-44.576 0-35.328 28.672-64 64-64 18.496 0 33.28 7.712 44.544 18.944l66.272 66.24c9.504 9.504 17.184 24.32 17.184 42.816v192c0 35.328-28.672 64-64 64zM512 832c-247.424 0-448-200.576-448-448 0-100.832 33.728-193.6 89.952-268.48l-71.36-71.36c-12.416-12.352-18.592-27.168-18.592-44.16 0-38.016 32.512-64 64-64 16.512 0 31.552 5.952 44.16 18.56l71.36 71.36c74.88-56.192 167.648-89.92 268.48-89.92s193.6 33.728 268.48 89.952l71.36-71.36c12.608-12.64 27.648-18.592 44.16-18.592 31.488 0 64 26.016 64 64 0 16.992-6.176 31.808-18.56 44.16l-71.36 71.36c56.192 74.88 89.92 167.648 89.92 268.48 0 247.424-200.576 448-448 448zM512 64c-176.704 0-320 143.296-320 320s143.296 320 320 320 320-143.296 320-320-143.296-320-320-320zM832 960c-68.16 0-127.872-35.616-161.952-89.152 125.856-40.8 230.368-128.8 292.448-243.392 37.76 35.040 61.504 84.992 61.504 140.544 0 106.016-85.984 192-192 192zM353.952 870.848c-34.080 53.536-93.792 89.152-161.952 89.152-106.016 0-192-85.984-192-192 0-55.552 23.744-105.504 61.504-140.576 62.048 114.592 166.592 202.592 292.448 243.424z" />
<glyph unicode="&#xe940;" glyph-name="et-icon-btn-cart2" data-tags="et-icon-btn-cart2" d="M1004 155.429l20-178.857q1.714-16-9.143-28.571-10.857-12-27.429-12h-950.857q-16.571 0-27.429 12-10.857 12.571-9.143 28.571l20 178.857h984zM950.857 634.857l49.143-442.857h-976l49.143 442.857q1.714 13.714 12 23.143t24.571 9.429h146.286v-73.143q0-30.286 21.429-51.714t51.714-21.429 51.714 21.429 21.429 51.714v73.143h219.429v-73.143q0-30.286 21.429-51.714t51.714-21.429 51.714 21.429 21.429 51.714v73.143h146.286q14.286 0 24.571-9.429t12-23.143zM731.429 740.571v-146.286q0-14.857-10.857-25.714t-25.714-10.857-25.714 10.857-10.857 25.714v146.286q0 60.571-42.857 103.429t-103.429 42.857-103.429-42.857-42.857-103.429v-146.286q0-14.857-10.857-25.714t-25.714-10.857-25.714 10.857-10.857 25.714v146.286q0 90.857 64.286 155.143t155.143 64.286 155.143-64.286 64.286-155.143z" />
<glyph unicode="&#xe941;" glyph-name="et-icon-vendor-products" data-tags="et-icon-vendor-products" horiz-adv-x="1088" d="M27.2-68.8h1033.6v689.065h-1033.6v-689.065zM429.154 505.423h229.688c31.583 0 57.423-25.84 57.423-57.423s-25.84-57.423-57.423-57.423h-229.688c-31.583 0-57.423 25.84-57.423 57.423s25.84 57.423 57.423 57.423zM-30.223 964.8v-287.112h1148.446v287.112z" />
<glyph unicode="&#xe942;" glyph-name="et-icon-product-popup-tab2" data-tags="et-icon-product-popup-tab2" d="M636.543 960c68.608 0 102.912-46.798 102.912-100.249 0-66.766-59.598-128.562-137.113-128.562-65.024 0-102.912 38.4-101.12 101.838 0 53.502 45.056 126.974 135.321 126.974zM425.446-64c-54.169 0-93.849 33.383-55.961 180.377l62.158 260.658c10.802 41.728 12.594 58.471 0 58.471-16.281 0-86.528-28.825-128.103-57.241l-27.035 45.109c131.737 111.922 283.239 177.511 348.21 177.511 54.119 0 63.079-65.127 36.096-165.326l-71.218-274.023c-12.594-48.434-7.218-65.127 5.376-65.127 16.281 0 69.479 20.121 121.806 61.849l30.72-41.728c-128.053-130.354-267.931-180.53-322.048-180.53z" />
<glyph unicode="&#xe943;" glyph-name="et-icon-vendor-menu-bestsellers" data-tags="et-icon-vendor-menu-bestsellers" d="M153.601 302.931v-64.048l95.15-58.399 54.132-99.417h112.060l97.060-56.034 97.063 56.034h112.052l54.132 99.417 95.15 58.399v64.048h-68.263v-26.731l-76.001-46.586-42.335-80.282h-92.068l-79.729-46.049-79.735 46.049h-92.076l-42.324 80.282-76.001 46.586v26.731zM870.399 576.001v81.114l-95.15 58.402-54.132 99.417h-112.052l-97.063 56.034-97.060-56.034h-112.060l-54.132-99.417-95.15-58.402v-81.114h68.266v43.807l76.001 46.575 42.324 80.285h92.076l79.735 46.049 79.729-46.049h92.068l42.335-80.285 76.001-46.575v-43.807zM664.117 712.533h-81.516l-70.598 40.758-70.612-40.758h-81.508l-37.017-71.132-66.865-41.284v-24.117h512v24.117l-66.867 41.284zM359.883 183.467h81.508l70.612-40.769 70.598 40.769h81.516l37.017 71.132 66.867 41.284v7.048h-512v-7.048l66.865-41.284zM153.601 319.999h870.399l-53.899 126.191 53.899 112.741h-1024l53.899-121.716-53.899-117.216z" />
<glyph unicode="&#xe944;" glyph-name="et-icon-vendor-menu-contact" data-tags="et-icon-vendor-menu-contact" d="M512.002 960c-282.75 0-512-229.25-512-512 0-282.745 229.25-512 512-512s511.996 229.257 511.996 512c0.002 282.75-229.246 512-511.996 512zM782.372 212.935l-40.995-41.003c-7.319-7.308-28.75-11.869-29.438-11.869-129.689-1.131-254.561 49.81-346.309 141.567-91.999 92.052-143 217.369-141.63 347.495 0 0.059 4.694 20.876 12.006 28.119l40.993 40.999c15.001 15.070 43.816 21.881 64.003 15.127l8.623-2.876c20.127-6.747 41.259-29.001 46.82-49.504l20.621-75.684c5.561-20.562-1.939-49.814-16.936-64.815l-27.372-27.376c26.874-99.489 104.936-177.566 204.442-204.506l27.362 27.383c15.070 15.070 44.312 22.565 64.83 17.012l75.673-20.695c20.507-5.635 42.757-26.633 49.502-46.754l2.876-8.748c6.686-20.129-0.072-48.938-15.070-63.872z" />
<glyph unicode="&#xe945;" glyph-name="et-icon-vendor-menu-new" data-tags="et-icon-vendor-menu-new" d="M1017.414 402.4l-75.249 119.406c-5.962 9.467-7.971 20.898-5.609 31.828l29.873 137.941c4.658 21.497-7.779 43.014-28.719 49.734l-134.396 43.1c-10.652 3.418-19.541 10.876-24.755 20.769l-65.782 124.865c-10.247 19.466-33.601 27.961-53.966 19.648l-130.666-53.378c-10.354-4.22-21.956-4.22-32.309 0l-130.645 53.368c-20.364 8.312-43.719-0.182-53.976-19.648l-65.782-124.854c-5.214-9.894-14.103-17.351-24.755-20.769l-134.394-43.1c-20.952-6.72-33.377-28.239-28.719-49.734l29.862-137.941c2.373-10.929 0.353-22.362-5.609-31.828l-75.239-119.408c-11.731-18.611-7.404-43.078 9.979-56.562l111.542-86.466c8.846-6.858 14.647-16.903 16.165-27.993l19.115-139.834c2.97-21.795 22.019-37.769 43.987-36.914l141.030 5.46c11.175 0.438 22.073-3.537 30.375-11.046l104.511-94.832c16.294-14.776 41.156-14.776 57.437 0l104.523 94.832c8.281 7.521 19.188 11.485 30.375 11.046l141.018-5.46c21.987-0.855 41.017 15.129 43.997 36.914l19.115 139.834c1.518 11.090 7.319 21.132 16.155 27.993l111.542 86.466c17.381 13.484 21.698 37.951 9.967 56.562zM393.592 277.471l-124.544 86.989 51.188-118.636-34.115-14.722-78.506 181.908 35.728 15.429 126.895-89.35-52.438 121.477 34.115 14.734 78.528-181.918-36.85-15.91zM469.277 310.143l-78.506 181.908 134.886 58.229 13.27-30.78-98.165-42.362 17.405-40.322 91.338 39.424 13.227-30.653-91.338-39.414 21.368-49.51 101.626 43.858 13.227-30.653-138.338-59.725zM776.777 442.849l-94.929 120.378 22.575-151.586-39.83-17.19-121.927 163.157 37.587 16.24 81.359-113.123-20.674 139.298 43.697 18.857 86.723-113.305-26.923 139.118 36.978 15.962 34.327-200.989-38.962-16.816z" />
<glyph unicode="&#xe946;" glyph-name="et-icon-vendor-menu-products" data-tags="et-icon-vendor-menu-products" d="M2.776 148.937l-1.101 465.388c-0.054 22.899 23.341 38.38 44.397 29.38l423.665-181.109c11.707-5.005 19.312-16.496 19.342-29.228l1.101-465.388c0.054-22.901-23.341-38.382-44.397-29.381l-423.665 181.109c-11.707 5.005-19.314 16.496-19.342 29.229zM973.478 592.419l-390.966-169.321 1.017-430.692 390.967 169.321-1.019 430.692zM989.298 648.565c16.804 0.042 31.885-13.476 31.926-31.828l1.101-465.388c0.030-12.731-7.521-24.261-19.205-29.32l-422.802-183.112c-4.171-1.805-8.445-2.649-12.606-2.66-16.806-0.038-31.888 13.478-31.93 31.828l-1.101 465.39c-0.032 12.731 7.521 24.261 19.207 29.32l422.802 183.11c4.171 1.809 8.443 2.65 12.608 2.66v0zM508.908 910.697l-405.559-181.082 406.411-179.158 405.561 181.081-406.413 179.16zM508.792 960c4.404 0.010 8.811-0.892 12.931-2.707l445.746-196.499c25.285-11.149 25.371-46.997 0.137-58.263l-444.813-198.607c-4.109-1.836-8.513-2.757-12.919-2.769-4.404-0.010-8.811 0.892-12.931 2.707l-445.745 196.499c-25.287 11.147-25.371 46.997-0.139 58.263l444.811 198.607c4.111 1.836 8.513 2.759 12.92 2.769v0z" />
<glyph unicode="&#xe947;" glyph-name="et-icon-vendor-menu-reviews" data-tags="et-icon-vendor-menu-reviews" d="M980.017 616.393c-2.392 2.249-5.337 3.831-8.534 4.581l-297.726 68.774-157.103 261.142c-5.284 8.858-16.748 11.755-25.606 6.474-2.661-1.588-4.886-3.812-6.474-6.474l-157.213-261.142-297.177-68.774c-10.039-2.376-16.251-12.436-13.876-22.475 0.684-2.898 2.052-5.586 3.988-7.847l199.949-230.491-26.916-303.879c-0.956-10.209 6.548-19.259 16.757-20.215 3.093-0.288 6.207 0.203 9.061 1.428l257.627 108.983-88.988 102.611c-19.506 22.516-17.067 56.584 5.449 76.090 6.66 5.771 14.636 9.822 23.225 11.799l161.387 37.353 85.253 141.722c15.381 25.422 48.37 33.706 73.937 18.567 7.707-4.589 14.131-11.052 18.677-18.786l65.917-109.203 159.19 183.36c7.070 7.512 6.707 19.33-0.805 26.4zM1002.319 298.012c-2.392 2.252-5.337 3.831-8.534 4.581l-175.779 40.649-92.833 154.356c-5.284 8.858-16.748 11.755-25.606 6.474-2.661-1.588-4.886-3.812-6.474-6.474l-93.273-154.356-175.779-40.649c-10.039-2.376-16.251-12.436-13.876-22.475 0.684-2.898 2.052-5.586 3.988-7.847l118.541-136.229-15.6-179.734c-0.956-10.209 6.548-19.259 16.757-20.215 3.093-0.288 6.207 0.2 9.061 1.428l166.112 70.422 164.793-69.762c9.113-4.834 20.418-1.362 25.249 7.751 1.689 3.183 2.42 6.787 2.107 10.376l-15.71 179.734 117.662 135.57c7.070 7.512 6.707 19.33-0.805 26.4z" />
<glyph unicode="&#xe948;" glyph-name="et-icon-vendor-menu-sale" data-tags="et-icon-vendor-menu-sale" d="M418.732 534.973c0-23.64-19.164-42.804-42.804-42.804s-42.804 19.164-42.804 42.804c0 23.64 19.164 42.804 42.804 42.804s42.804-19.164 42.804-42.804zM690.664 361.239c0-23.64-19.164-42.804-42.804-42.804s-42.804 19.164-42.804 42.804c0 23.64 19.164 42.804 42.804 42.804s42.804-19.164 42.804-42.804zM1000.785 391.453l-15.527 21.192c-16.786 23.081-17.206 54.345-0.629 77.845l15.107 21.402c23.081 32.733 12.38 78.265-23.081 97.359l-23.081 12.38c-25.179 13.429-39.027 41.545-34.201 69.872l4.406 25.808c6.714 39.447-22.871 75.956-62.947 77.635l-26.228 1.049c-28.536 1.259-53.295 20.563-61.269 48.050l-7.344 25.179c-11.121 38.608-53.505 58.541-90.434 42.594l-24.13-10.281c-26.228-11.331-56.862-4.616-75.956 16.786l-17.415 19.514c-26.648 29.795-73.439 29.585-99.876-0.839l-17.206-19.723c-18.884-21.612-49.309-28.746-75.747-17.835l-24.34 10.072c-37.139 15.317-79.104-5.455-89.805-44.063l-6.924-25.389c-7.554-27.697-31.893-47.42-60.429-48.889l-26.228-1.469c-40.076-2.308-69.032-39.237-61.688-78.684l4.826-25.808c5.246-28.116-8.183-56.443-33.152-70.291l-22.871-12.799c-35.041-19.514-45.112-65.255-21.402-97.568l15.527-21.192c16.786-23.081 17.206-54.345 0.629-77.845l-15.107-21.402c-23.081-32.733-12.38-78.265 23.081-97.359l23.081-12.38c25.179-13.429 39.027-41.545 34.201-69.872l-4.406-25.808c-6.714-39.447 22.871-75.956 62.947-77.635l26.228-1.049c28.536-1.259 53.295-20.563 61.269-48.050l7.344-25.179c11.121-38.608 53.505-58.541 90.434-42.594l24.13 10.281c26.228 11.331 56.862 4.616 75.956-16.786l17.415-19.514c26.858-29.795 73.648-29.585 99.876 0.839l17.206 19.723c18.884 21.612 49.309 28.746 75.747 17.835l24.34-10.072c37.139-15.317 79.104 5.455 89.805 44.063l6.924 25.389c7.554 27.697 31.893 47.42 60.429 48.889l26.228 1.469c40.076 2.308 69.032 39.237 61.688 78.684l-4.826 25.808c-5.246 28.116 8.183 56.443 33.152 70.291l22.871 12.799c35.041 19.304 45.112 65.046 21.402 97.568zM272.484 534.973c0 57.072 46.161 103.234 103.234 103.234s103.234-46.161 103.234-103.234-46.161-103.234-103.234-103.234-103.234 46.371-103.234 103.234zM395.651 268.706c-8.813-10.701-24.759-12.17-35.46-3.357v0c-10.701 8.813-12.17 24.759-3.357 35.46l270.883 326.277c8.813 10.701 24.759 12.17 35.46 3.357s12.17-24.759 3.357-35.46l-270.883-326.277zM647.86 258.005c-57.072 0-103.234 46.161-103.234 103.234s46.161 103.234 103.234 103.234 103.234-46.161 103.234-103.234-46.161-103.234-103.234-103.234z" />
<glyph unicode="&#xe949;" glyph-name="et-icon-vendor-menu-store-home" data-tags="et-icon-vendor-menu-store-home" d="M1006.813 493.857l-155.192 155.192v179.273c0 32.415-26.268 58.685-58.73 58.685-32.388 0-58.656-26.27-58.656-58.685v-61.889l-115.553 115.557c-57.131 57.099-156.461 56.998-213.462-0.103l-388.038-388.030c-22.907-22.952-22.907-60.090 0-83.008 22.917-22.946 60.128-22.946 83.037 0l388.001 388.041c12.64 12.574 34.918 12.574 47.492 0.037l388.067-388.078c11.507-11.474 26.51-17.181 41.508-17.181 15.029 0 30.057 5.713 41.529 17.181 22.915 22.915 22.915 60.053-0.002 83.008zM532.385 687.492c-11.274 11.267-29.527 11.267-40.768 0l-341.32-341.218c-5.389-5.387-8.444-12.741-8.444-20.416v-248.872c0-58.4 47.351-105.749 105.749-105.749h168.988v261.706h190.784v-261.706h168.99c58.396 0 105.747 47.349 105.747 105.747v248.874c0 7.675-3.028 15.029-8.444 20.416l-341.282 341.218z" />
<glyph unicode="&#xe94a;" glyph-name="et-icon-vendor-menu-vendor-pages" data-tags="et-icon-vendor-menu-vendor-pages" d="M512 960c-282.313 0-512-229.687-512-512s229.687-512 512-512 512 229.687 512 512-229.687 512-512 512zM731.429 210.286h-438.857c-20.187 0-36.571 16.384-36.571 36.571s16.384 36.571 36.571 36.571h438.857c20.187 0 36.571-16.384 36.571-36.571s-16.384-36.571-36.571-36.571zM731.429 411.429h-438.857c-20.187 0-36.571 16.384-36.571 36.571s16.384 36.571 36.571 36.571h438.857c20.187 0 36.571-16.384 36.571-36.571s-16.384-36.571-36.571-36.571zM731.429 612.571h-438.857c-20.187 0-36.571 16.384-36.571 36.571s16.384 36.571 36.571 36.571h438.857c20.187 0 36.571-16.384 36.571-36.571s-16.384-36.571-36.571-36.571z" />
<glyph unicode="&#xe94b;" glyph-name="et-icon-btn-qv2" data-tags="et-icon-btn-qv2" d="M512 813.714c-237.019 0-439.034-147.6-510-353.785-1.267-3.555-2-7.656-2-11.929s0.733-8.374 2.079-12.185l-0.079 0.256c70.966-206.186 272.981-353.785 510-353.785s439.034 147.6 510 353.785c1.267 3.555 2 7.656 2 11.929s-0.733 8.374-2.079 12.185l0.079-0.256c-70.966 206.186-272.981 353.785-510 353.785zM512 740.571c201.6 0 370.006-123.282 434.429-292.571-64.423-169.289-232.829-292.571-434.429-292.571s-370.006 123.282-434.429 292.571c64.423 169.289 232.829 292.571 434.429 292.571zM512 667.429c-120.754 0-219.429-98.674-219.429-219.429s98.674-219.429 219.429-219.429c120.754 0 219.429 98.674 219.429 219.429s-98.674 219.429-219.429 219.429zM512 594.286c81.224 0 146.286-65.062 146.286-146.286s-65.062-146.286-146.286-146.286c-81.224 0-146.286 65.062-146.286 146.286s65.062 146.286 146.286 146.286z" />
</font>
</defs>
</svg>
