<svg xmlns="http://www.w3.org/2000/svg" viewBox="0 0 478.17 478.17" width="32" height="32">
    <path d="M294.66 306.74c49.39 24.31 101.69 68.5 122.83 119.66-27.08 21.88-30.84 24.67-62.76 51.77-30.74-59.38-68.02-92.1-119.02-105.18-29.89 38.67-78.64 83.7-154.85 104.64-16.94-36.08-21.58-46.13-33.07-73.24 61-14.2 83.24-33.63 113.02-90.61-2.07-69.4 15.7-137.6 60.07-164.87 23.17 7.57 61.57 30.44 72.42 33.9-1.51 7.02 3.35 15.07 22.02 19.08 14.29 3.08 47.44 8.03 79.77-21.2 19.6 30.34 35.29 59.69 35.29 59.69s-61.48 61.18-134.32 41.78c-.46 9.58-.94 12.45-1.4 24.58zm8.59-170.82c-37.08 0-68.38-30.44-68.38-68C234.87 30.54 266.05 0 303.25 0c37.27 0 69.03 30.54 69.03 67.9 0 37.55-31.76 68.02-69.03 68.02z" fill="#000000"/>
</svg>
